<svg width="35" height="36" viewBox="0 0 35 36" fill="none" xmlns="http://www.w3.org/2000/svg">
<g clip-path="url(#clip0_96_1015)">
<path d="M17.5003 3.41675C9.45033 3.41675 2.91699 9.95008 2.91699 18.0001C2.91699 26.0501 9.45033 32.5834 17.5003 32.5834C25.5503 32.5834 32.0837 26.0501 32.0837 18.0001C32.0837 9.95008 25.5503 3.41675 17.5003 3.41675ZM17.5003 7.79175C19.9212 7.79175 21.8753 9.74591 21.8753 12.1667C21.8753 14.5876 19.9212 16.5417 17.5003 16.5417C15.0795 16.5417 13.1253 14.5876 13.1253 12.1667C13.1253 9.74591 15.0795 7.79175 17.5003 7.79175ZM17.5003 28.5001C13.8545 28.5001 10.6316 26.6334 8.75033 23.8042C8.79408 20.9022 14.5837 19.3126 17.5003 19.3126C20.4024 19.3126 26.2066 20.9022 26.2503 23.8042C24.3691 26.6334 21.1462 28.5001 17.5003 28.5001Z" fill="#D9D9D9"/>
</g>
<defs>
<clipPath id="clip0_96_1015">
<rect width="35" height="35" fill="white" transform="translate(0 0.5)"/>
</clipPath>
</defs>
</svg>
