<svg width="18" height="14" viewBox="0 0 18 14" fill="none" xmlns="http://www.w3.org/2000/svg">
<path d="M0.630604 6.90308C0.630604 7.16675 0.744862 7.43042 0.94701 7.62378L6.74779 13.4158C6.95873 13.6179 7.18724 13.7146 7.44213 13.7146C7.99584 13.7146 8.40014 13.3191 8.40014 12.783C8.40014 12.5017 8.29467 12.2644 8.1101 12.0886L6.13256 10.0847L3.58373 7.75562L5.63158 7.87866H16.2839C16.864 7.87866 17.2683 7.47437 17.2683 6.90308C17.2683 6.323 16.864 5.9187 16.2839 5.9187H5.63158L3.59252 6.04175L6.13256 3.71265L8.1101 1.70874C8.29467 1.53296 8.40014 1.29565 8.40014 1.0144C8.40014 0.478271 7.99584 0.0827637 7.44213 0.0827637C7.18724 0.0827637 6.94994 0.179443 6.72142 0.39917L0.94701 6.17358C0.744862 6.36694 0.630604 6.63062 0.630604 6.90308Z" fill="#3C3C43" fill-opacity="0.6"/>
</svg>
