<svg width="390" height="330" viewBox="0 0 390 330" fill="none" xmlns="http://www.w3.org/2000/svg">
<rect width="391" height="330" fill="#EEF1F4"/>
<path d="M203 155H189C187.895 155 187 155.895 187 157V171C187 172.105 187.895 173 189 173H203C204.105 173 205 172.105 205 171V157C205 155.895 204.105 155 203 155Z" stroke="#667080" stroke-width="2" stroke-linecap="round" stroke-linejoin="round"/>
<path d="M192.5 162C193.328 162 194 161.328 194 160.5C194 159.672 193.328 159 192.5 159C191.672 159 191 159.672 191 160.5C191 161.328 191.672 162 192.5 162Z" stroke="#667080" stroke-width="2" stroke-linecap="round" stroke-linejoin="round"/>
<path d="M205 167L200 162L189 173" stroke="#667080" stroke-width="2" stroke-linecap="round" stroke-linejoin="round"/>
</svg>
