<svg width="31" height="30" viewBox="0 0 31 30" fill="none" xmlns="http://www.w3.org/2000/svg">
<path d="M21.917 11.25C21.917 9.5924 21.2585 8.00269 20.0864 6.83058C18.9143 5.65848 17.3246 5 15.667 5C14.0094 5 12.4197 5.65848 11.2476 6.83058C10.0755 8.00269 9.41699 9.5924 9.41699 11.25C9.41699 13.4075 11.492 17.5387 15.667 23.3162C19.842 17.5387 21.917 13.4075 21.917 11.25V11.25ZM15.667 27.5C9.83324 19.8875 6.91699 14.4712 6.91699 11.25C6.91699 8.92936 7.83886 6.70376 9.47981 5.06282C11.1208 3.42187 13.3463 2.5 15.667 2.5C17.9876 2.5 20.2132 3.42187 21.8542 5.06282C23.4951 6.70376 24.417 8.92936 24.417 11.25C24.417 14.4712 21.5007 19.8875 15.667 27.5ZM15.667 16.25C14.3409 16.25 13.0691 15.7232 12.1315 14.7855C11.1938 13.8479 10.667 12.5761 10.667 11.25C10.667 9.92392 11.1938 8.65215 12.1315 7.71447C13.0691 6.77678 14.3409 6.25 15.667 6.25C16.9931 6.25 18.2648 6.77678 19.2025 7.71447C20.1402 8.65215 20.667 9.92392 20.667 11.25C20.667 12.5761 20.1402 13.8479 19.2025 14.7855C18.2648 15.7232 16.9931 16.25 15.667 16.25V16.25ZM15.667 13.75C16.33 13.75 16.9659 13.4866 17.4348 13.0178C17.9036 12.5489 18.167 11.913 18.167 11.25C18.167 10.587 17.9036 9.95107 17.4348 9.48223C16.9659 9.01339 16.33 8.75 15.667 8.75C15.004 8.75 14.3681 9.01339 13.8992 9.48223C13.4304 9.95107 13.167 10.587 13.167 11.25C13.167 11.913 13.4304 12.5489 13.8992 13.0178C14.3681 13.4866 15.004 13.75 15.667 13.75V13.75Z" fill="#D9D9D9"/>
</svg>
