<svg width="168" height="19" viewBox="0 0 168 19" fill="none" xmlns="http://www.w3.org/2000/svg">
<path d="M4.46025 18.176L4.05225 18.104C3.84425 18.072 3.62825 18.04 3.40425 18.008C3.19625 17.976 2.98025 17.952 2.75625 17.936C2.53225 17.936 2.30825 17.872 2.08425 17.744C1.87625 17.632 1.73225 17.456 1.65225 17.216C1.63625 17.136 1.61225 17.056 1.58025 16.976C1.56425 16.896 1.54825 16.816 1.53225 16.736C1.53225 16.544 1.57225 16.4 1.65225 16.304C1.73225 16.224 1.79625 16.144 1.84425 16.064C1.90825 15.984 1.97225 15.912 2.03625 15.848C2.06825 15.816 2.10025 15.792 2.13225 15.776C2.16425 15.76 2.19625 15.744 2.22825 15.728C2.30825 15.68 2.38825 15.648 2.46825 15.632C2.54825 15.6 2.62825 15.576 2.70825 15.56C2.74025 15.544 2.76425 15.544 2.78025 15.56C2.81225 15.56 2.83625 15.56 2.85225 15.56C2.93225 15.576 3.02025 15.592 3.11625 15.608C3.21225 15.608 3.30025 15.624 3.38025 15.656L4.38825 15.8C4.61225 15.832 4.81225 15.8 4.98825 15.704C5.05225 15.672 5.10825 15.64 5.15625 15.608C5.22025 15.576 5.27625 15.544 5.32425 15.512C5.67625 15.304 5.98025 15.088 6.23625 14.864C6.42825 14.688 6.61225 14.512 6.78825 14.336C6.96425 14.16 7.12425 13.968 7.26825 13.76C7.38025 13.616 7.45225 13.472 7.48425 13.328C7.51625 13.168 7.52425 13.008 7.50825 12.848L7.43625 12.656C7.42025 12.576 7.38825 12.512 7.34025 12.464C7.29225 12.416 7.24425 12.36 7.19625 12.296C7.10025 12.216 7.00425 12.128 6.90825 12.032C6.82825 11.936 6.74025 11.856 6.64425 11.792C6.40425 11.6 6.16425 11.416 5.92425 11.24C5.70025 11.064 5.46825 10.888 5.22825 10.712C5.21225 10.68 5.16425 10.648 5.08425 10.616C4.94025 10.52 4.79625 10.416 4.65225 10.304C4.52425 10.176 4.39625 10.056 4.26825 9.944C4.10825 9.784 3.93225 9.632 3.74025 9.488C3.64425 9.44 3.55625 9.36 3.47625 9.248C3.41225 9.168 3.31625 9.088 3.18825 9.008C3.07625 8.944 2.97225 8.872 2.87625 8.792C2.78025 8.696 2.68425 8.608 2.58825 8.528L2.27625 8.24C2.21225 8.16 2.14025 8.088 2.06025 8.024C1.99625 7.944 1.92425 7.864 1.84425 7.784C1.81225 7.704 1.76425 7.64 1.70025 7.592C1.65225 7.544 1.60425 7.488 1.55625 7.424C1.54025 7.392 1.51625 7.36 1.48425 7.328C1.45225 7.28 1.42825 7.232 1.41225 7.184C1.31625 6.992 1.21225 6.8 1.10025 6.608C1.00425 6.416 0.91625 6.216 0.83625 6.008C0.78825 5.88 0.74025 5.76 0.69225 5.648C0.66025 5.52 0.62825 5.4 0.59625 5.288C0.58025 5.16 0.54825 5.048 0.50025 4.952C0.46825 4.84 0.43625 4.728 0.40425 4.616C0.37225 4.44 0.33225 4.272 0.28425 4.112C0.25225 3.936 0.22025 3.768 0.18825 3.608L0.14025 3.416C0.12425 3.24 0.12425 3.072 0.14025 2.912C0.17225 2.688 0.22025 2.488 0.28425 2.312C0.34825 2.12 0.45225 1.968 0.59625 1.856C0.75625 1.728 0.91625 1.6 1.07625 1.472C1.23625 1.344 1.40425 1.24 1.58025 1.16C1.61225 1.16 1.63625 1.152 1.65225 1.136C1.81225 1.008 1.98825 0.919999 2.18025 0.871999C2.37225 0.807999 2.56425 0.751999 2.75625 0.704C3.52425 0.48 4.31625 0.311999 5.13225 0.199999H5.37225C5.53225 0.199999 5.68425 0.199999 5.82825 0.199999C5.97225 0.199999 6.12425 0.191999 6.28425 0.175999C6.47625 0.175999 6.66825 0.199999 6.86025 0.248C7.05225 0.279999 7.23625 0.335999 7.41225 0.415999C7.54025 0.479999 7.66825 0.551999 7.79625 0.631999C7.92425 0.695999 8.04425 0.767999 8.15625 0.847999C8.28425 0.943999 8.36425 1.048 8.39625 1.16L8.46825 1.328C8.54825 1.472 8.58825 1.624 8.58825 1.784C8.60425 1.928 8.59625 2.08 8.56425 2.24C8.56425 2.288 8.55625 2.344 8.54025 2.408C8.54025 2.456 8.54025 2.504 8.54025 2.552C8.49225 2.904 8.32425 3.176 8.03625 3.368C7.86025 3.528 7.62825 3.592 7.34025 3.56C7.27625 3.528 7.24425 3.544 7.24425 3.608C7.24425 3.672 7.20425 3.704 7.12425 3.704H6.98025C6.88425 3.704 6.78825 3.656 6.69225 3.56C6.61225 3.48 6.57225 3.416 6.57225 3.368C6.57225 3.304 6.60425 3.256 6.66825 3.224C6.63625 3.144 6.60425 3.072 6.57225 3.008C6.54025 2.944 6.50825 2.896 6.47625 2.864C6.42825 2.784 6.35625 2.728 6.26025 2.696C6.18025 2.68 6.10025 2.664 6.02025 2.648C5.94025 2.632 5.86025 2.616 5.78025 2.6C5.71625 2.6 5.64425 2.6 5.56425 2.6C5.48425 2.584 5.40425 2.568 5.32425 2.552C5.27625 2.536 5.20425 2.544 5.10825 2.576C5.06025 2.592 5.01225 2.608 4.96425 2.624C4.91625 2.624 4.86025 2.616 4.79625 2.6C4.74825 2.6 4.69225 2.6 4.62825 2.6C4.58025 2.6 4.52425 2.616 4.46025 2.648L4.00425 2.72C3.74825 2.768 3.50025 2.864 3.26025 3.008C3.21225 3.024 3.16425 3.04 3.11625 3.056C3.06825 3.072 3.02025 3.072 2.97225 3.056C2.87625 3.04 2.79625 3.064 2.73225 3.128C2.71625 3.16 2.67625 3.184 2.61225 3.2C2.56425 3.2 2.52425 3.216 2.49225 3.248C2.42825 3.312 2.39625 3.376 2.39625 3.44C2.41225 3.472 2.42025 3.52 2.42025 3.584L2.92425 5.048C3.02025 5.304 3.14025 5.544 3.28425 5.768C3.44425 5.976 3.61225 6.184 3.78825 6.392C4.06025 6.712 4.34025 6.984 4.62825 7.208L5.39625 7.856C5.55625 8 5.72425 8.136 5.90025 8.264C6.07625 8.392 6.24425 8.52 6.40425 8.648C6.64425 8.824 6.88425 9.008 7.12425 9.2C7.36425 9.376 7.60425 9.56 7.84425 9.752C8.03625 9.912 8.22025 10.072 8.39625 10.232C8.58825 10.376 8.76425 10.536 8.92425 10.712C9.03625 10.84 9.14825 10.968 9.26025 11.096C9.37225 11.224 9.46825 11.368 9.54825 11.528C9.66025 11.704 9.75625 11.912 9.83625 12.152C9.93225 12.456 9.97225 12.744 9.95625 13.016C9.94025 13.048 9.93225 13.096 9.93225 13.16C9.93225 13.352 9.90825 13.536 9.86025 13.712C9.82825 13.872 9.77225 14.04 9.69225 14.216C9.61225 14.376 9.52425 14.544 9.42825 14.72C9.34825 14.88 9.25225 15.04 9.14025 15.2C8.98025 15.408 8.81225 15.608 8.63625 15.8C8.47625 15.976 8.29225 16.152 8.08425 16.328C7.97225 16.424 7.86025 16.528 7.74825 16.64C7.63625 16.736 7.51625 16.824 7.38825 16.904C7.30825 16.968 7.22825 17.024 7.14825 17.072C7.06825 17.136 6.98825 17.2 6.90825 17.264C6.84425 17.296 6.78025 17.336 6.71625 17.384C6.65225 17.432 6.58825 17.48 6.52425 17.528C6.46025 17.592 6.38025 17.64 6.28425 17.672C6.20425 17.72 6.12425 17.76 6.04425 17.792L5.34825 18.08C5.20425 18.128 5.06025 18.16 4.91625 18.176C4.77225 18.192 4.62025 18.192 4.46025 18.176ZM21.8687 17.576C21.7247 17.592 21.5887 17.592 21.4607 17.576C21.3327 17.56 21.2047 17.496 21.0767 17.384C21.0447 17.352 20.9967 17.32 20.9327 17.288C20.8527 17.24 20.8047 17.184 20.7887 17.12C20.7727 17.056 20.7407 17.008 20.6927 16.976C20.6447 16.928 20.6127 16.872 20.5967 16.808C20.5807 16.76 20.5727 16.712 20.5727 16.664C20.5887 16.6 20.5967 16.544 20.5967 16.496C20.5967 16.448 20.5887 16.4 20.5727 16.352C20.5727 16.304 20.5727 16.256 20.5727 16.208C20.5247 15.968 20.4767 15.728 20.4287 15.488C20.3807 15.232 20.3407 14.984 20.3087 14.744C20.2927 14.632 20.2767 14.52 20.2607 14.408C20.2447 14.296 20.2287 14.184 20.2127 14.072C20.1967 13.864 20.1727 13.656 20.1407 13.448C20.1247 13.24 20.1007 13.032 20.0687 12.824C20.0367 12.696 20.0207 12.584 20.0207 12.488C20.0207 12.36 20.0127 12.24 19.9967 12.128C19.9807 12 19.9647 11.88 19.9487 11.768C19.9327 11.672 19.8767 11.624 19.7807 11.624L19.6127 11.6C19.5327 11.584 19.4447 11.576 19.3487 11.576C19.2527 11.576 19.1567 11.568 19.0607 11.552H18.8207C18.7887 11.568 18.7407 11.576 18.6767 11.576C18.6127 11.576 18.5487 11.576 18.4847 11.576C18.4367 11.56 18.3727 11.56 18.2927 11.576C18.2287 11.576 18.1647 11.584 18.1007 11.6C18.0527 11.6 17.9887 11.592 17.9087 11.576C17.8927 11.56 17.8607 11.56 17.8127 11.576C17.7807 11.576 17.7487 11.576 17.7167 11.576C17.6367 11.576 17.5487 11.584 17.4527 11.6C17.3727 11.6 17.2927 11.6 17.2127 11.6C17.1647 11.6 17.1167 11.6 17.0687 11.6C17.0207 11.6 16.9727 11.608 16.9247 11.624C16.8127 11.64 16.7007 11.656 16.5887 11.672C16.4767 11.672 16.3647 11.672 16.2527 11.672C16.0927 11.656 15.9327 11.656 15.7727 11.672C15.6127 11.688 15.4527 11.704 15.2927 11.72H15.2207C15.1407 11.752 15.1007 11.8 15.1007 11.864C15.1007 11.88 15.0927 11.896 15.0767 11.912C15.0767 11.912 15.0767 11.92 15.0767 11.936C15.0767 12.016 15.0847 12.08 15.1007 12.128C15.1167 12.24 15.1327 12.36 15.1487 12.488C15.1647 12.6 15.1807 12.72 15.1967 12.848L15.2687 13.424C15.2847 13.584 15.3087 13.744 15.3407 13.904C15.3727 14.048 15.3967 14.192 15.4127 14.336C15.4287 14.352 15.4367 14.376 15.4367 14.408C15.4367 14.424 15.4447 14.448 15.4607 14.48C15.4927 14.56 15.5087 14.648 15.5087 14.744C15.5087 14.84 15.5087 14.936 15.5087 15.032C15.5407 15.048 15.5327 15.08 15.4847 15.128C15.4687 15.16 15.4527 15.192 15.4367 15.224C15.4207 15.256 15.4127 15.288 15.4127 15.32C15.3647 15.48 15.2607 15.632 15.1007 15.776C14.9407 15.904 14.7887 15.976 14.6447 15.992C14.6287 15.992 14.6127 16 14.5967 16.016C14.5807 16.016 14.5567 16.016 14.5247 16.016C14.3167 16.064 14.0927 16.048 13.8527 15.968L13.7807 15.92C13.7647 15.856 13.7327 15.808 13.6847 15.776C13.6367 15.744 13.5967 15.712 13.5647 15.68C13.5327 15.632 13.4927 15.592 13.4447 15.56C13.4127 15.512 13.3887 15.456 13.3727 15.392C13.3727 15.376 13.3647 15.368 13.3487 15.368C13.2847 15.288 13.2447 15.2 13.2287 15.104C13.2127 15.008 13.1967 14.912 13.1807 14.816L13.1087 14.432C13.0927 14.288 13.0687 14.144 13.0367 14C13.0207 13.84 13.0047 13.68 12.9887 13.52L12.8447 12.584C12.8287 12.472 12.8127 12.36 12.7967 12.248C12.7807 12.12 12.7647 12 12.7487 11.888L12.6767 11.12C12.6607 10.96 12.6447 10.8 12.6287 10.64C12.6127 10.48 12.5887 10.32 12.5567 10.16V9.944C12.5567 9.816 12.5487 9.688 12.5327 9.56C12.5327 9.432 12.5247 9.312 12.5087 9.2C12.4927 9.152 12.4847 9.104 12.4847 9.056C12.4847 9.008 12.4847 8.96 12.4847 8.912C12.4847 8.832 12.4767 8.76 12.4607 8.696C12.4607 8.616 12.4527 8.536 12.4367 8.456L12.3647 7.952C12.3487 7.776 12.3167 7.592 12.2687 7.4C12.2367 7.208 12.1887 7.024 12.1247 6.848C12.0927 6.752 12.0527 6.656 12.0047 6.56C11.9567 6.448 11.9167 6.336 11.8847 6.224C11.8527 6.096 11.8207 6.008 11.7887 5.96C11.7407 5.8 11.7407 5.648 11.7887 5.504L11.9327 5.144C11.9487 5.08 11.9967 5.024 12.0767 4.976C12.1087 4.928 12.1487 4.888 12.1967 4.856C12.2447 4.808 12.2927 4.768 12.3407 4.736C12.3727 4.72 12.4127 4.712 12.4607 4.712C12.5087 4.728 12.5727 4.72 12.6527 4.688L12.7247 4.64C12.8687 4.56 13.0127 4.56 13.1567 4.64C13.2367 4.672 13.3167 4.704 13.3967 4.736C13.4927 4.768 13.5727 4.824 13.6367 4.904C13.7327 4.92 13.7967 4.992 13.8287 5.12L14.0447 5.6C14.1727 5.872 14.2847 6.152 14.3807 6.44C14.4767 6.728 14.5407 7.032 14.5727 7.352C14.5887 7.464 14.6047 7.584 14.6207 7.712C14.6527 7.824 14.6767 7.944 14.6927 8.072V8.264C14.6927 8.344 14.7007 8.4 14.7167 8.432C14.7327 8.544 14.7407 8.664 14.7407 8.792C14.7567 8.92 14.7647 9.048 14.7647 9.176V9.224C14.7807 9.304 14.8287 9.36 14.9087 9.392C14.9567 9.408 15.0047 9.424 15.0527 9.44C15.1007 9.44 15.1487 9.44 15.1967 9.44C15.2767 9.424 15.3407 9.424 15.3887 9.44C15.4527 9.44 15.5167 9.44 15.5807 9.44C15.6927 9.44 15.7967 9.44 15.8927 9.44C15.9887 9.424 16.0927 9.416 16.2047 9.416H16.4927C16.5407 9.416 16.5887 9.424 16.6367 9.44C16.7007 9.44 16.7567 9.432 16.8047 9.416C16.8367 9.416 16.8607 9.416 16.8767 9.416C16.9087 9.4 16.9327 9.392 16.9487 9.392C17.1087 9.408 17.2687 9.416 17.4287 9.416C17.5887 9.4 17.7487 9.392 17.9087 9.392C18.0687 9.408 18.2287 9.416 18.3887 9.416C18.5487 9.4 18.7087 9.392 18.8687 9.392C18.9967 9.392 19.1167 9.4 19.2287 9.416C19.3567 9.416 19.4767 9.416 19.5887 9.416C19.7007 9.416 19.7567 9.368 19.7567 9.272C19.7567 9.192 19.7567 9.104 19.7567 9.008C19.7567 8.912 19.7487 8.824 19.7327 8.744C19.7167 8.568 19.7007 8.408 19.6847 8.264C19.6847 8.104 19.6767 7.944 19.6607 7.784C19.6447 7.56 19.6367 7.344 19.6367 7.136C19.6527 6.912 19.6447 6.696 19.6127 6.488C19.5967 6.312 19.5807 6.136 19.5647 5.96C19.5647 5.784 19.5487 5.616 19.5167 5.456V5.12C19.5167 5.056 19.5247 5.008 19.5407 4.976C19.5407 4.944 19.5407 4.92 19.5407 4.904C19.5567 4.872 19.5647 4.848 19.5647 4.832C19.5647 4.752 19.5487 4.704 19.5167 4.688L19.4447 4.64C19.3487 4.576 19.3327 4.504 19.3967 4.424C19.4447 4.36 19.4527 4.288 19.4207 4.208C19.4207 4.16 19.4287 4.128 19.4447 4.112C19.4767 4.064 19.5087 4.016 19.5407 3.968C19.5727 3.92 19.5967 3.864 19.6127 3.8C19.6607 3.624 19.7327 3.544 19.8287 3.56C19.9407 3.56 20.0127 3.576 20.0447 3.608C20.0607 3.624 20.0767 3.632 20.0927 3.632C20.1087 3.616 20.1167 3.6 20.1167 3.584C20.1167 3.488 20.1647 3.432 20.2607 3.416C20.3567 3.4 20.4287 3.384 20.4767 3.368L20.6207 3.272H20.6927C20.7727 3.304 20.8367 3.344 20.8847 3.392C20.9487 3.424 21.0127 3.456 21.0767 3.488C21.1087 3.504 21.1487 3.536 21.1967 3.584C21.3087 3.728 21.3887 3.912 21.4367 4.136C21.4687 4.296 21.5007 4.448 21.5327 4.592C21.5647 4.736 21.5887 4.888 21.6047 5.048C21.6047 5.08 21.6047 5.112 21.6047 5.144C21.6207 5.176 21.6287 5.208 21.6287 5.24L21.6527 5.408C21.6527 5.6 21.6607 5.792 21.6767 5.984C21.7087 6.16 21.7327 6.344 21.7487 6.536C21.7647 6.552 21.7727 6.584 21.7727 6.632C21.7567 6.744 21.7487 6.856 21.7487 6.968C21.7647 7.064 21.7807 7.176 21.7967 7.304C21.8127 7.416 21.8207 7.544 21.8207 7.688C21.8367 7.816 21.8447 7.944 21.8447 8.072C21.8447 8.152 21.8447 8.24 21.8447 8.336C21.8607 8.432 21.8767 8.52 21.8927 8.6C21.9087 8.68 21.9167 8.76 21.9167 8.84C21.9167 8.92 21.9167 9 21.9167 9.08C21.9167 9.16 21.9167 9.24 21.9167 9.32C21.9327 9.384 21.9487 9.456 21.9647 9.536V9.632C21.9807 9.824 21.9967 10.016 22.0127 10.208C22.0447 10.384 22.0687 10.568 22.0847 10.76C22.1007 10.776 22.1087 10.808 22.1087 10.856C22.1087 11.032 22.1247 11.216 22.1567 11.408C22.1887 11.584 22.2127 11.76 22.2287 11.936L22.3007 12.776C22.3007 12.792 22.3007 12.824 22.3007 12.872C22.3167 12.904 22.3247 12.936 22.3247 12.968C22.3407 13 22.3487 13.064 22.3487 13.16C22.3487 13.304 22.3567 13.448 22.3727 13.592C22.4047 13.736 22.4287 13.88 22.4447 14.024C22.4767 14.184 22.5007 14.344 22.5167 14.504C22.5327 14.664 22.5567 14.832 22.5887 15.008C22.6207 15.2 22.6607 15.392 22.7087 15.584C22.7567 15.776 22.7967 15.968 22.8287 16.16C22.8447 16.224 22.8527 16.296 22.8527 16.376C22.8687 16.44 22.8767 16.512 22.8767 16.592C22.8767 16.672 22.8527 16.752 22.8047 16.832C22.7887 16.848 22.7727 16.88 22.7567 16.928C22.7567 16.96 22.7407 16.992 22.7087 17.024C22.6927 17.04 22.6847 17.056 22.6847 17.072C22.6847 17.088 22.6767 17.096 22.6607 17.096C22.5967 17.112 22.5407 17.152 22.4927 17.216C22.4447 17.28 22.3887 17.328 22.3247 17.36C22.2607 17.424 22.1727 17.472 22.0607 17.504L21.8687 17.576ZM34.7743 18.752C34.6303 18.752 34.5023 18.696 34.3903 18.584C34.3583 18.536 34.3263 18.488 34.2943 18.44C34.2623 18.392 34.2303 18.344 34.1983 18.296C34.0543 17.96 33.9823 17.608 33.9823 17.24L33.9103 16.664C33.8623 16.44 33.8223 16.216 33.7903 15.992C33.7583 15.768 33.7023 15.552 33.6223 15.344L33.4783 14.936C33.4783 14.904 33.4703 14.872 33.4543 14.84C33.4543 14.808 33.4463 14.776 33.4303 14.744L33.0703 13.472C33.0543 13.44 33.0383 13.4 33.0223 13.352C33.0223 13.304 33.0063 13.264 32.9743 13.232C32.9263 13.136 32.8863 13.04 32.8543 12.944C32.8383 12.832 32.8143 12.72 32.7823 12.608C32.7663 12.528 32.7503 12.456 32.7343 12.392C32.7183 12.312 32.6943 12.232 32.6623 12.152C32.6303 12.056 32.5983 12 32.5663 11.984C32.5343 11.952 32.4623 11.952 32.3503 11.984C32.2703 12 32.1823 12.016 32.0863 12.032C32.0063 12.032 31.9263 12.048 31.8463 12.08C31.7823 12.096 31.7023 12.112 31.6063 12.128C31.5263 12.128 31.4463 12.136 31.3663 12.152L31.0303 12.224C30.9503 12.24 30.8623 12.264 30.7663 12.296C30.6863 12.312 30.6063 12.32 30.5263 12.32L30.0943 12.392C29.9663 12.424 29.8303 12.456 29.6863 12.488C29.5423 12.52 29.4063 12.552 29.2783 12.584C28.8943 12.68 28.5103 12.752 28.1263 12.8C27.9983 12.832 27.9263 12.888 27.9103 12.968C27.8943 12.968 27.8863 12.976 27.8863 12.992C27.7903 13.248 27.6783 13.504 27.5503 13.76C27.4383 14 27.3183 14.248 27.1903 14.504C27.1583 14.568 27.1263 14.632 27.0943 14.696C27.0783 14.744 27.0543 14.8 27.0223 14.864C27.0063 14.896 26.9903 14.936 26.9743 14.984C26.9583 15.016 26.9423 15.048 26.9263 15.08C26.8303 15.192 26.7823 15.328 26.7823 15.488C26.7663 15.584 26.7343 15.68 26.6863 15.776C26.6383 15.856 26.5903 15.936 26.5423 16.016C26.5263 16.064 26.4943 16.088 26.4463 16.088C26.3823 16.104 26.3183 16.128 26.2543 16.16C26.1903 16.192 26.1183 16.224 26.0383 16.256C25.9903 16.272 25.9423 16.272 25.8943 16.256C25.8623 16.24 25.8223 16.224 25.7743 16.208C25.7423 16.176 25.7103 16.16 25.6783 16.16C25.5023 16.144 25.3743 16.04 25.2943 15.848C25.1663 15.592 25.0783 15.336 25.0303 15.08C25.0143 15.016 25.0143 14.96 25.0303 14.912C25.0623 14.864 25.0863 14.816 25.1023 14.768C25.1983 14.704 25.2543 14.632 25.2703 14.552V14.528C25.2703 14.32 25.3103 14.128 25.3903 13.952C25.4863 13.76 25.5663 13.576 25.6303 13.4C25.6623 13.304 25.7023 13.208 25.7503 13.112C25.7983 13.016 25.8463 12.92 25.8943 12.824C25.9583 12.712 26.0063 12.608 26.0383 12.512C26.0863 12.4 26.1263 12.288 26.1583 12.176C26.2063 12.048 26.2063 11.928 26.1583 11.816C26.1263 11.72 26.1103 11.632 26.1103 11.552C26.1103 11.456 26.1183 11.36 26.1343 11.264C26.1343 11.088 26.1983 10.936 26.3263 10.808C26.3903 10.728 26.4543 10.664 26.5183 10.616C26.5983 10.552 26.6703 10.488 26.7343 10.424C26.8783 10.28 26.9903 10.088 27.0703 9.848C27.1343 9.64 27.1823 9.432 27.2143 9.224C27.2623 9 27.3103 8.784 27.3583 8.576C27.3903 8.368 27.4223 8.168 27.4543 7.976C27.5023 7.768 27.5503 7.568 27.5983 7.376C27.6143 7.296 27.6303 7.224 27.6463 7.16C27.6783 7.08 27.7023 7.008 27.7183 6.944C27.7663 6.816 27.8143 6.696 27.8623 6.584C27.9103 6.456 27.9423 6.328 27.9583 6.2C27.9903 6.136 27.9903 6.08 27.9583 6.032C27.9423 5.952 27.9423 5.88 27.9583 5.816C27.9903 5.752 28.0143 5.688 28.0303 5.624C28.0783 5.512 28.1103 5.4 28.1263 5.288C28.1583 5.176 28.1983 5.064 28.2463 4.952C28.3263 4.744 28.3903 4.576 28.4383 4.448C28.5023 4.304 28.5583 4.144 28.6063 3.968C28.6383 3.872 28.6703 3.784 28.7023 3.704C28.7503 3.608 28.7823 3.512 28.7983 3.416C28.8463 3.272 28.8863 3.128 28.9183 2.984C28.9503 2.824 28.9663 2.672 28.9663 2.528C28.9983 2.4 29.0303 2.312 29.0623 2.264C29.1423 2.104 29.2383 1.968 29.3503 1.856C29.4783 1.744 29.5983 1.632 29.7103 1.52C29.7903 1.472 29.8703 1.44 29.9503 1.424C30.0303 1.392 30.1103 1.4 30.1903 1.448C30.2543 1.48 30.2943 1.496 30.3103 1.496C30.4543 1.48 30.5743 1.512 30.6703 1.592C30.7663 1.672 30.8463 1.768 30.9103 1.88C30.9423 1.912 30.9663 1.952 30.9823 2C30.9983 2.048 31.0143 2.088 31.0303 2.12C31.1103 2.248 31.1503 2.376 31.1503 2.504C31.1503 2.568 31.1583 2.64 31.1743 2.72C31.1903 2.784 31.2063 2.856 31.2223 2.936C31.2703 3.032 31.3423 3.08 31.4383 3.08C31.4543 3.064 31.4703 3.064 31.4863 3.08C31.5023 3.096 31.5103 3.112 31.5103 3.128C31.5903 3.224 31.6143 3.328 31.5823 3.44C31.5503 3.568 31.5423 3.696 31.5583 3.824C31.5903 3.936 31.6223 4.056 31.6543 4.184C31.7183 4.344 31.7823 4.504 31.8463 4.664C31.9103 4.824 31.9743 4.984 32.0383 5.144C32.1183 5.32 32.1983 5.496 32.2783 5.672C32.3583 5.848 32.4303 6.024 32.4943 6.2C32.5743 6.424 32.6543 6.648 32.7343 6.872C32.8303 7.096 32.9343 7.32 33.0463 7.544L33.1183 7.808C33.1343 7.872 33.1503 7.936 33.1663 8C33.1983 8.064 33.2223 8.128 33.2383 8.192C33.2703 8.24 33.2943 8.288 33.3103 8.336C33.3423 8.384 33.3743 8.424 33.4063 8.456C33.4863 8.568 33.5343 8.688 33.5503 8.816C33.5983 8.976 33.6703 9.12 33.7663 9.248C33.7983 9.296 33.8463 9.32 33.9103 9.32C34.1503 9.288 34.3903 9.264 34.6303 9.248C34.8703 9.216 35.1103 9.168 35.3503 9.104C35.5263 9.056 35.6943 9.032 35.8543 9.032C36.1583 9.032 36.4383 9.136 36.6943 9.344C36.9983 9.584 37.1583 9.888 37.1743 10.256C37.1743 10.336 37.1823 10.4 37.1983 10.448C37.1983 10.56 37.1663 10.648 37.1023 10.712C37.0863 10.76 37.0543 10.808 37.0063 10.856C36.9743 10.904 36.9423 10.952 36.9103 11C36.8783 11.064 36.8463 11.112 36.8143 11.144L36.6703 11.264C36.6543 11.296 36.6303 11.336 36.5983 11.384C36.5663 11.416 36.5263 11.44 36.4783 11.456C36.4143 11.472 36.3503 11.496 36.2863 11.528C36.2223 11.544 36.1503 11.552 36.0703 11.552C35.7823 11.584 35.5263 11.576 35.3023 11.528H34.9183C34.8863 11.528 34.8383 11.544 34.7743 11.576C34.7103 11.608 34.6783 11.648 34.6783 11.696V11.792C34.7263 11.936 34.7583 12.088 34.7743 12.248C34.8063 12.392 34.8543 12.528 34.9183 12.656C34.9183 12.72 34.9343 12.784 34.9663 12.848C35.0463 12.992 35.1103 13.144 35.1583 13.304C35.2063 13.448 35.2463 13.6 35.2783 13.76C35.2783 13.792 35.2943 13.856 35.3263 13.952C35.3743 14.064 35.4143 14.184 35.4463 14.312C35.4783 14.424 35.5023 14.544 35.5183 14.672C35.5183 14.768 35.5423 14.856 35.5903 14.936C35.6543 15.08 35.7023 15.224 35.7343 15.368C35.7663 15.512 35.7903 15.664 35.8063 15.824C35.8223 15.84 35.8303 15.872 35.8303 15.92C35.8303 15.952 35.8383 15.984 35.8543 16.016C35.9343 16.192 35.9903 16.384 36.0223 16.592C36.0543 16.784 36.0943 16.976 36.1423 17.168C36.1743 17.264 36.1903 17.36 36.1903 17.456C36.2063 17.568 36.2143 17.68 36.2143 17.792C36.2143 17.872 36.1903 17.96 36.1423 18.056C36.0943 18.104 36.0703 18.128 36.0703 18.128C35.9743 18.144 35.9183 18.2 35.9023 18.296L35.8303 18.44C35.7983 18.504 35.7503 18.544 35.6863 18.56C35.6223 18.56 35.5663 18.584 35.5183 18.632C35.4543 18.696 35.3663 18.728 35.2543 18.728C35.1903 18.728 35.1103 18.728 35.0143 18.728C34.9343 18.728 34.8543 18.736 34.7743 18.752ZM28.9903 10.04C29.0863 10.024 29.1823 10.008 29.2783 9.992C29.3903 9.976 29.5103 9.96 29.6383 9.944C29.7183 9.928 29.8223 9.912 29.9503 9.896C30.0783 9.88 30.1983 9.864 30.3103 9.848C30.4223 9.816 30.5343 9.8 30.6463 9.8C30.7583 9.784 30.8703 9.768 30.9823 9.752C31.0783 9.72 31.1743 9.704 31.2703 9.704C31.3663 9.688 31.4623 9.672 31.5583 9.656C31.7023 9.624 31.7583 9.544 31.7263 9.416C31.7103 9.288 31.6783 9.16 31.6303 9.032C31.5983 8.888 31.5263 8.768 31.4143 8.672C31.3823 8.64 31.3663 8.592 31.3663 8.528V8.456C31.3343 8.328 31.2943 8.208 31.2463 8.096C31.2143 7.968 31.1743 7.848 31.1263 7.736C31.0943 7.608 31.0543 7.496 31.0063 7.4C30.9743 7.288 30.9343 7.176 30.8863 7.064L30.5983 6.2C30.5503 6.088 30.5023 5.976 30.4543 5.864C30.4223 5.752 30.3903 5.64 30.3583 5.528L30.2863 5.432H30.2143L30.1663 5.504C30.0863 5.744 29.9903 5.984 29.8783 6.224C29.7823 6.464 29.6943 6.72 29.6143 6.992C29.6143 7.024 29.6063 7.064 29.5903 7.112C29.5743 7.16 29.5583 7.208 29.5423 7.256C29.4783 7.416 29.4143 7.592 29.3503 7.784C29.3023 7.976 29.2623 8.168 29.2303 8.36C29.2143 8.472 29.1983 8.584 29.1823 8.696C29.1663 8.792 29.1423 8.896 29.1103 9.008L28.8943 9.944C28.8783 9.96 28.8863 9.984 28.9183 10.016C28.9503 10.032 28.9743 10.04 28.9903 10.04ZM41.202 17.48C40.898 17.512 40.65 17.416 40.458 17.192C40.362 17.096 40.274 16.992 40.194 16.88C40.114 16.768 40.05 16.648 40.002 16.52C39.922 16.296 39.85 16.072 39.786 15.848C39.722 15.608 39.666 15.376 39.618 15.152C39.57 14.976 39.546 14.808 39.546 14.648C39.53 14.472 39.506 14.304 39.474 14.144C39.458 13.968 39.45 13.792 39.45 13.616C39.45 13.52 39.45 13.424 39.45 13.328C39.45 13.216 39.442 13.112 39.426 13.016C39.41 12.952 39.402 12.896 39.402 12.848C39.402 12.8 39.402 12.744 39.402 12.68C39.402 12.456 39.402 12.232 39.402 12.008C39.402 11.768 39.394 11.536 39.378 11.312C39.378 11.184 39.37 11.072 39.354 10.976C39.338 10.864 39.306 10.752 39.258 10.64C39.194 10.464 39.186 10.272 39.234 10.064C39.234 10.016 39.242 9.984 39.258 9.968C39.29 9.856 39.306 9.744 39.306 9.632C39.322 9.52 39.322 9.408 39.306 9.296C39.29 9.216 39.282 9.136 39.282 9.056C39.282 8.976 39.282 8.904 39.282 8.84C39.266 8.664 39.258 8.488 39.258 8.312C39.274 8.12 39.29 7.936 39.306 7.76C39.322 7.712 39.33 7.664 39.33 7.616C39.33 7.568 39.33 7.52 39.33 7.472C39.314 7.296 39.314 7.128 39.33 6.968C39.362 6.808 39.386 6.648 39.402 6.488C39.434 6.296 39.466 6.112 39.498 5.936C39.53 5.744 39.57 5.552 39.618 5.36C39.65 5.28 39.666 5.192 39.666 5.096C39.666 5 39.666 4.904 39.666 4.808C39.666 4.728 39.658 4.648 39.642 4.568C39.642 4.488 39.642 4.416 39.642 4.352C39.642 4.304 39.642 4.256 39.642 4.208C39.642 4.16 39.65 4.112 39.666 4.064C39.682 4.016 39.69 3.968 39.69 3.92C39.69 3.872 39.698 3.84 39.714 3.824C39.762 3.76 39.802 3.704 39.834 3.656C39.866 3.592 39.914 3.536 39.978 3.488C40.058 3.44 40.13 3.392 40.194 3.344C40.274 3.296 40.346 3.256 40.41 3.224C40.49 3.192 40.554 3.152 40.602 3.104C40.666 3.024 40.73 2.952 40.794 2.888C40.874 2.808 40.938 2.72 40.986 2.624C41.066 2.544 41.146 2.456 41.226 2.36C41.322 2.248 41.426 2.16 41.538 2.096C41.57 2.08 41.618 2.04 41.682 1.976C41.874 1.8 42.098 1.688 42.354 1.64C42.402 1.624 42.442 1.616 42.474 1.616C42.522 1.6 42.57 1.592 42.618 1.592L42.786 1.52C42.914 1.472 43.026 1.496 43.122 1.592C43.154 1.64 43.194 1.688 43.242 1.736C43.306 1.768 43.362 1.8 43.41 1.832C43.538 1.944 43.658 2.064 43.77 2.192C43.898 2.32 44.01 2.464 44.106 2.624C44.266 2.88 44.402 3.136 44.514 3.392C44.642 3.648 44.762 3.912 44.874 4.184L45.306 5.216C45.322 5.312 45.362 5.4 45.426 5.48C45.554 5.72 45.65 5.968 45.714 6.224C45.778 6.464 45.842 6.712 45.906 6.968C45.922 7 45.93 7.032 45.93 7.064C45.946 7.096 45.954 7.128 45.954 7.16C45.986 7.288 46.01 7.424 46.026 7.568C46.058 7.696 46.066 7.824 46.05 7.952C46.066 8.096 46.058 8.24 46.026 8.384C46.01 8.512 45.986 8.64 45.954 8.768C45.906 8.928 45.85 9.08 45.786 9.224C45.722 9.352 45.65 9.488 45.57 9.632C45.538 9.728 45.482 9.816 45.402 9.896C45.322 9.976 45.242 10.048 45.162 10.112C45.034 10.176 44.906 10.272 44.778 10.4C44.746 10.432 44.706 10.456 44.658 10.472C44.626 10.488 44.594 10.512 44.562 10.544C44.45 10.592 44.33 10.648 44.202 10.712C44.074 10.76 43.946 10.808 43.818 10.856C43.802 10.856 43.794 10.872 43.794 10.904C43.794 10.92 43.802 10.936 43.818 10.952L44.466 11.408C44.546 11.456 44.618 11.504 44.682 11.552C44.746 11.584 44.81 11.624 44.874 11.672L45.018 11.744C45.21 11.856 45.402 11.976 45.594 12.104C45.786 12.232 45.97 12.36 46.146 12.488C46.482 12.696 46.818 12.912 47.154 13.136C47.49 13.344 47.81 13.576 48.114 13.832C48.386 14.04 48.626 14.28 48.834 14.552C48.882 14.6 48.93 14.656 48.978 14.72C49.026 14.768 49.082 14.808 49.146 14.84L49.218 14.912C49.474 15.136 49.618 15.44 49.65 15.824C49.65 15.872 49.642 15.92 49.626 15.968C49.626 16.016 49.626 16.064 49.626 16.112C49.626 16.208 49.594 16.288 49.53 16.352C49.466 16.384 49.434 16.424 49.434 16.472C49.386 16.584 49.314 16.664 49.218 16.712C49.138 16.744 49.058 16.792 48.978 16.856C48.946 16.872 48.89 16.88 48.81 16.88C48.714 16.864 48.61 16.848 48.498 16.832C48.402 16.816 48.306 16.808 48.21 16.808C48.082 16.808 47.946 16.752 47.802 16.64C47.706 16.56 47.618 16.488 47.538 16.424C47.458 16.344 47.378 16.248 47.298 16.136C47.09 15.848 46.818 15.584 46.482 15.344C46.322 15.216 46.17 15.096 46.026 14.984C45.882 14.872 45.722 14.768 45.546 14.672C45.434 14.608 45.322 14.544 45.21 14.48C45.114 14.4 45.002 14.328 44.874 14.264C44.474 13.992 44.066 13.728 43.65 13.472C43.234 13.2 42.818 12.928 42.402 12.656C42.338 12.608 42.266 12.56 42.186 12.512C42.106 12.464 42.026 12.416 41.946 12.368C41.914 12.336 41.866 12.304 41.802 12.272C41.738 12.272 41.706 12.296 41.706 12.344C41.706 12.36 41.698 12.376 41.682 12.392C41.682 12.392 41.682 12.4 41.682 12.416C41.682 12.464 41.682 12.512 41.682 12.56C41.682 12.608 41.69 12.656 41.706 12.704C41.722 12.832 41.73 12.96 41.73 13.088C41.73 13.2 41.73 13.32 41.73 13.448C41.73 13.544 41.73 13.64 41.73 13.736C41.746 13.816 41.762 13.904 41.778 14C41.778 14.048 41.778 14.104 41.778 14.168C41.794 14.216 41.802 14.264 41.802 14.312C41.786 14.456 41.794 14.6 41.826 14.744C41.858 14.888 41.882 15.032 41.898 15.176L42.042 15.8C42.058 15.864 42.074 15.936 42.09 16.016C42.106 16.08 42.122 16.152 42.138 16.232C42.154 16.296 42.154 16.36 42.138 16.424C42.138 16.472 42.13 16.528 42.114 16.592C42.114 16.608 42.098 16.632 42.066 16.664C41.986 16.68 41.93 16.736 41.898 16.832C41.85 16.944 41.778 17.04 41.682 17.12C41.602 17.216 41.514 17.304 41.418 17.384C41.402 17.4 41.37 17.416 41.322 17.432C41.274 17.448 41.234 17.464 41.202 17.48ZM42.138 9.08H42.186C42.362 9.048 42.538 9.016 42.714 8.984C42.906 8.936 43.09 8.88 43.266 8.816C43.442 8.768 43.594 8.68 43.722 8.552C43.834 8.44 43.89 8.312 43.89 8.168C43.906 8.056 43.906 7.952 43.89 7.856C43.89 7.744 43.874 7.632 43.842 7.52C43.778 7.232 43.706 6.952 43.626 6.68C43.546 6.392 43.45 6.12 43.338 5.864L43.122 5.288C43.074 5.128 43.018 4.976 42.954 4.832C42.89 4.672 42.818 4.52 42.738 4.376C42.722 4.344 42.706 4.312 42.69 4.28C42.674 4.232 42.658 4.192 42.642 4.16L42.546 4.064C42.498 4 42.442 4 42.378 4.064C42.362 4.064 42.338 4.08 42.306 4.112C42.194 4.256 42.09 4.408 41.994 4.568C41.914 4.728 41.866 4.904 41.85 5.096C41.834 5.16 41.818 5.224 41.802 5.288C41.802 5.352 41.802 5.424 41.802 5.504V6.536C41.786 6.76 41.778 6.992 41.778 7.232C41.794 7.472 41.786 7.704 41.754 7.928C41.738 7.976 41.73 8.024 41.73 8.072C41.746 8.12 41.754 8.168 41.754 8.216C41.77 8.312 41.778 8.408 41.778 8.504C41.778 8.584 41.778 8.672 41.778 8.768C41.778 8.928 41.794 9.024 41.826 9.056C41.874 9.088 41.978 9.096 42.138 9.08ZM54.4393 17.168C54.3433 17.168 54.2793 17.16 54.2473 17.144C54.1673 17.112 54.0873 17.096 54.0073 17.096C53.9433 17.112 53.8713 17.12 53.7913 17.12C53.7753 17.12 53.7593 17.12 53.7433 17.12C53.7273 17.136 53.7113 17.144 53.6953 17.144C53.5833 17.16 53.4713 17.168 53.3593 17.168C53.2633 17.168 53.1673 17.152 53.0713 17.12C53.0553 17.104 53.0393 17.096 53.0233 17.096C52.9113 17.112 52.8153 17.08 52.7353 17C52.6553 16.92 52.5753 16.848 52.4953 16.784C52.4153 16.704 52.3753 16.616 52.3753 16.52L52.3033 16.328C52.2553 16.216 52.2393 16.112 52.2553 16.016C52.2713 15.984 52.2713 15.952 52.2553 15.92C52.2553 15.888 52.2553 15.856 52.2553 15.824C52.2393 15.792 52.2313 15.76 52.2313 15.728C52.2313 15.68 52.2233 15.64 52.2073 15.608C52.1753 15.464 52.1513 15.32 52.1353 15.176C52.1353 15.016 52.1433 14.864 52.1593 14.72C52.1753 14.624 52.2313 14.464 52.3273 14.24C52.4233 14 52.4793 13.856 52.4953 13.808C52.5433 13.728 52.5673 13.664 52.5673 13.616C52.5513 13.44 52.5433 13.264 52.5433 13.088C52.5593 12.896 52.5673 12.712 52.5673 12.536C52.5673 12.424 52.5913 12.336 52.6393 12.272C52.7033 12.16 52.7113 12.04 52.6633 11.912L52.5913 11.648C52.4953 11.472 52.5033 11.32 52.6153 11.192C52.6153 11.176 52.6153 11.168 52.6153 11.168C52.6313 11.152 52.6393 11.136 52.6393 11.12C52.6713 11.088 52.6793 11.048 52.6633 11C52.6473 10.936 52.6393 10.888 52.6393 10.856C52.6393 10.792 52.6473 10.728 52.6633 10.664C52.6953 10.584 52.7033 10.512 52.6873 10.448C52.6873 10.448 52.6713 10.432 52.6393 10.4C52.6233 10.368 52.6153 10.304 52.6153 10.208C52.6313 10.112 52.6393 10.056 52.6393 10.04V9.368C52.6553 9.288 52.6633 9.216 52.6633 9.152C52.6633 9.072 52.6713 8.992 52.6873 8.912C52.7033 8.816 52.7033 8.72 52.6873 8.624C52.6873 8.512 52.6873 8.4 52.6873 8.288C52.6713 8.208 52.6553 8.12 52.6393 8.024C52.6393 7.928 52.6393 7.832 52.6393 7.736C52.6233 7.704 52.6153 7.664 52.6153 7.616C52.6153 7.568 52.6153 7.528 52.6153 7.496C52.5993 7.416 52.5833 7.336 52.5673 7.256C52.5673 7.176 52.5673 7.096 52.5673 7.016C52.5673 6.984 52.5353 6.88 52.4713 6.704C52.4073 6.512 52.3833 6.352 52.3993 6.224C52.4153 6.192 52.4233 6.152 52.4233 6.104C52.4233 6.056 52.4073 6.016 52.3753 5.984C52.3433 5.968 52.3273 5.936 52.3273 5.888V5.816C52.3753 5.624 52.3513 5.432 52.2553 5.24C52.1913 5.144 52.1673 5.048 52.1833 4.952C52.1833 4.824 52.1273 4.728 52.0153 4.664C51.9353 4.584 51.8633 4.488 51.7993 4.376C51.7353 4.264 51.6953 4.152 51.6793 4.04C51.6633 3.96 51.6553 3.88 51.6553 3.8C51.6553 3.72 51.6553 3.648 51.6553 3.584C51.6553 3.52 51.6633 3.48 51.6793 3.464C51.7433 3.4 51.7753 3.328 51.7753 3.248C51.7753 3.152 51.7833 3.08 51.7993 3.032C51.8153 3.016 51.8313 3.008 51.8473 3.008C51.8633 3.008 51.8793 3 51.8953 2.984C51.9593 2.968 51.9913 2.912 51.9913 2.816C51.9593 2.752 51.9433 2.696 51.9433 2.648C51.9273 2.584 51.9513 2.528 52.0153 2.48C52.0473 2.416 52.0873 2.4 52.1353 2.432C52.2473 2.48 52.3753 2.464 52.5193 2.384C52.5833 2.352 52.6233 2.336 52.6393 2.336C52.6873 2.336 52.7113 2.336 52.7113 2.336C52.7273 2.32 52.7753 2.312 52.8553 2.312C52.9513 2.328 53.0393 2.296 53.1193 2.216C53.2313 2.104 53.3673 2.048 53.5273 2.048H55.0153C55.3833 2.064 55.7513 2.064 56.1193 2.048C56.4873 2.032 56.8473 2.024 57.1993 2.024C57.2793 2.024 57.3433 2.024 57.3913 2.024C57.4553 2.008 57.5193 1.992 57.5833 1.976C57.6793 1.928 57.7913 1.904 57.9193 1.904H58.4713C58.5993 1.904 58.7113 1.904 58.8073 1.904C58.9193 1.888 59.0313 1.872 59.1433 1.856C59.2073 1.84 59.2633 1.832 59.3113 1.832C59.3753 1.832 59.4393 1.832 59.5033 1.832C59.5673 1.832 59.6313 1.832 59.6953 1.832C59.7593 1.832 59.8233 1.824 59.8873 1.808C60.0153 1.792 60.1513 1.784 60.2953 1.784C60.4393 1.768 60.5753 1.76 60.7033 1.76C60.7673 1.76 60.8233 1.76 60.8713 1.76C60.9353 1.744 60.9993 1.728 61.0633 1.712C61.1913 1.68 61.3113 1.664 61.4233 1.664C61.5513 1.648 61.6713 1.632 61.7833 1.616C61.9113 1.6 62.0313 1.584 62.1433 1.568C62.2713 1.552 62.3913 1.536 62.5033 1.52C62.6473 1.52 62.7513 1.536 62.8153 1.568C62.9113 1.632 62.9993 1.688 63.0793 1.736C63.1753 1.784 63.2633 1.848 63.3433 1.928C63.4073 1.992 63.4473 2.048 63.4633 2.096C63.4793 2.16 63.4953 2.224 63.5113 2.288C63.5273 2.352 63.5433 2.424 63.5593 2.504V2.672C63.5433 2.752 63.5273 2.84 63.5113 2.936C63.5113 3.016 63.5033 3.104 63.4873 3.2C63.4553 3.264 63.4153 3.32 63.3673 3.368L62.9353 3.8C62.7753 3.848 62.6153 3.88 62.4553 3.896C62.3113 3.912 62.1593 3.912 61.9993 3.896H61.8313C61.7513 3.912 61.6713 3.92 61.5913 3.92C61.5113 3.92 61.4313 3.912 61.3513 3.896C61.2553 3.88 61.1593 3.88 61.0633 3.896C60.9673 3.896 60.8713 3.896 60.7753 3.896C60.7113 3.896 60.6473 3.904 60.5833 3.92C60.5353 3.92 60.4793 3.912 60.4153 3.896C60.3353 3.88 60.2553 3.88 60.1753 3.896C60.1113 3.896 60.0393 3.904 59.9593 3.92C59.8953 3.92 59.8233 3.928 59.7433 3.944C59.6793 3.944 59.6073 3.944 59.5273 3.944C59.3193 3.976 59.0953 3.992 58.8553 3.992C58.6313 3.992 58.4073 4.008 58.1833 4.04C58.0393 4.024 57.9033 4.032 57.7753 4.064C57.6473 4.08 57.5113 4.096 57.3673 4.112C57.2393 4.128 57.1033 4.136 56.9593 4.136C56.8153 4.136 56.6793 4.152 56.5513 4.184C56.3913 4.184 56.2313 4.208 56.0713 4.256C55.9273 4.288 55.7753 4.312 55.6153 4.328L55.4473 4.352C55.3353 4.352 55.2313 4.368 55.1353 4.4C55.0393 4.416 54.9353 4.44 54.8233 4.472C54.7593 4.488 54.6953 4.504 54.6313 4.52C54.5673 4.52 54.4953 4.528 54.4153 4.544C54.3673 4.544 54.3113 4.56 54.2473 4.592C54.1993 4.608 54.1753 4.656 54.1753 4.736L54.2473 4.952C54.2633 4.984 54.2553 5.064 54.2233 5.192C54.2073 5.32 54.1913 5.416 54.1753 5.48C54.1753 5.528 54.1833 5.576 54.1993 5.624C54.2153 5.672 54.2313 5.72 54.2473 5.768C54.2953 5.896 54.3193 6.04 54.3193 6.2C54.3193 6.344 54.3353 6.48 54.3673 6.608C54.3833 6.672 54.3913 6.744 54.3913 6.824C54.3913 6.888 54.3993 6.96 54.4153 7.04C54.4153 7.072 54.4153 7.112 54.4153 7.16C54.4313 7.192 54.4393 7.232 54.4393 7.28C54.4393 7.328 54.4313 7.36 54.4153 7.376C54.3673 7.44 54.3433 7.512 54.3433 7.592C54.3433 7.672 54.3433 7.752 54.3433 7.832C54.4233 7.992 54.4633 8.152 54.4633 8.312C54.4633 8.472 54.4633 8.632 54.4633 8.792C54.4633 8.84 54.5033 8.856 54.5833 8.84H54.6073C54.6393 8.776 54.6713 8.728 54.7033 8.696C54.7513 8.696 54.8073 8.68 54.8713 8.648C54.9193 8.616 54.9833 8.6 55.0633 8.6C55.1913 8.616 55.3113 8.616 55.4233 8.6C55.5353 8.568 55.6473 8.536 55.7593 8.504C56.5113 8.312 57.2153 8.064 57.8713 7.76C58.0473 7.68 58.2313 7.616 58.4233 7.568C58.6153 7.504 58.8073 7.464 58.9993 7.448H59.0713C59.2153 7.432 59.3593 7.416 59.5033 7.4C59.6473 7.384 59.7913 7.376 59.9353 7.376C60.1273 7.36 60.3113 7.336 60.4873 7.304C60.6793 7.272 60.8713 7.248 61.0633 7.232C61.1753 7.2 61.2793 7.176 61.3753 7.16C61.4713 7.128 61.5753 7.088 61.6873 7.04C61.8953 6.96 62.0873 6.92 62.2633 6.92C62.3913 6.936 62.5113 6.968 62.6233 7.016C62.7353 7.048 62.8473 7.096 62.9593 7.16C63.1993 7.32 63.3193 7.56 63.3193 7.88C63.3193 8.008 63.3033 8.136 63.2713 8.264C63.2553 8.392 63.2473 8.52 63.2473 8.648C63.2473 8.68 63.2313 8.712 63.1993 8.744L63.1273 8.864C63.1113 8.928 63.0953 8.992 63.0793 9.056C63.0633 9.12 63.0233 9.168 62.9593 9.2C62.8633 9.28 62.7593 9.368 62.6473 9.464C62.5513 9.544 62.4393 9.6 62.3113 9.632C62.2473 9.648 62.1833 9.664 62.1193 9.68C62.0713 9.696 62.0153 9.704 61.9513 9.704C61.6953 9.704 61.4313 9.72 61.1593 9.752C60.9033 9.784 60.6393 9.816 60.3673 9.848C60.1593 9.864 59.9513 9.888 59.7433 9.92C59.5513 9.952 59.3513 9.968 59.1433 9.968C58.9513 9.968 58.7353 10.008 58.4953 10.088C58.3353 10.12 58.1673 10.152 57.9913 10.184C57.8153 10.216 57.6393 10.24 57.4633 10.256C57.3353 10.272 57.1993 10.296 57.0553 10.328C56.9273 10.344 56.7993 10.36 56.6713 10.376L56.2633 10.448C56.2313 10.464 56.1833 10.472 56.1193 10.472C56.0073 10.504 55.8953 10.528 55.7833 10.544C55.6713 10.56 55.5593 10.584 55.4473 10.616C55.3353 10.632 55.2233 10.656 55.1113 10.688C55.0153 10.72 54.9113 10.752 54.7993 10.784C54.7193 10.8 54.6553 10.832 54.6073 10.88C54.5593 10.912 54.5193 10.96 54.4873 11.024C54.4713 11.072 54.4713 11.12 54.4873 11.168C54.5033 11.232 54.4953 11.296 54.4633 11.36C54.4793 11.52 54.4873 11.68 54.4873 11.84C54.5033 12 54.5033 12.16 54.4873 12.32C54.5193 12.448 54.5273 12.576 54.5113 12.704C54.5113 12.832 54.5033 12.96 54.4873 13.088C54.4553 13.28 54.4633 13.44 54.5113 13.568C54.5593 13.776 54.5433 13.992 54.4633 14.216C54.4313 14.312 54.4313 14.376 54.4633 14.408C54.4953 14.456 54.4953 14.512 54.4633 14.576V14.72C54.4473 14.848 54.5033 14.912 54.6313 14.912H54.6793C54.7913 14.912 54.9033 14.952 55.0153 15.032C55.0953 15.112 55.1913 15.136 55.3033 15.104L55.9753 15.032C56.0713 15.016 56.1673 15.008 56.2633 15.008C56.3593 14.992 56.4553 14.984 56.5513 14.984C56.5833 14.968 56.6313 14.976 56.6953 15.008C56.7753 15.056 56.8473 15.064 56.9113 15.032C56.9433 15 56.9833 14.976 57.0313 14.96C57.0953 14.944 57.1433 14.92 57.1753 14.888C57.2713 14.792 57.3913 14.76 57.5353 14.792C57.6633 14.824 57.7673 14.816 57.8473 14.768C57.9913 14.72 58.1273 14.704 58.2553 14.72C58.3353 14.736 58.4153 14.728 58.4953 14.696C58.5753 14.664 58.6553 14.648 58.7353 14.648C58.7673 14.648 58.7913 14.656 58.8073 14.672C58.8233 14.672 58.8393 14.664 58.8553 14.648C58.8873 14.648 58.9193 14.64 58.9513 14.624C58.9833 14.608 59.0073 14.6 59.0233 14.6C59.1353 14.552 59.2393 14.536 59.3353 14.552C59.4153 14.552 59.4553 14.552 59.4553 14.552C59.5193 14.536 59.5753 14.536 59.6233 14.552C59.6873 14.568 59.7433 14.592 59.7913 14.624C59.8713 14.64 59.9353 14.664 59.9833 14.696C60.0473 14.728 60.1113 14.752 60.1753 14.768C60.2073 14.768 60.2313 14.776 60.2473 14.792C60.3273 14.856 60.4233 14.912 60.5353 14.96C60.6633 15.008 60.7353 15.064 60.7513 15.128C60.7833 15.224 60.7993 15.32 60.7993 15.416C60.7993 15.496 60.8073 15.584 60.8233 15.68C60.8233 15.728 60.8153 15.776 60.7993 15.824C60.7993 15.872 60.7913 15.92 60.7753 15.968C60.7433 16.032 60.7033 16.104 60.6553 16.184C60.6233 16.264 60.5753 16.336 60.5113 16.4C60.4793 16.432 60.4473 16.464 60.4153 16.496C60.3993 16.528 60.3753 16.56 60.3433 16.592C60.2793 16.656 60.2073 16.712 60.1273 16.76C60.0473 16.808 59.9593 16.832 59.8633 16.832C59.7993 16.832 59.7513 16.84 59.7193 16.856C59.6553 16.888 59.5913 16.904 59.5273 16.904C59.4633 16.904 59.3913 16.904 59.3113 16.904C59.1993 16.92 59.0873 16.936 58.9753 16.952C58.8793 16.952 58.7753 16.944 58.6633 16.928C58.5993 16.912 58.5433 16.912 58.4953 16.928C58.3353 16.976 58.1753 16.984 58.0153 16.952C57.8553 16.952 57.6953 16.96 57.5353 16.976C57.3913 16.976 57.2473 16.976 57.1033 16.976H56.7913C56.7433 16.976 56.7033 16.984 56.6713 17C56.6073 17.032 56.5273 17.048 56.4313 17.048C56.3513 17.048 56.2713 17.04 56.1913 17.024H55.9513C55.9353 17.024 55.9113 17.024 55.8793 17.024C55.8473 17.04 55.8153 17.04 55.7833 17.024C55.7353 17.008 55.6873 17 55.6393 17C55.6073 17.016 55.5673 17.032 55.5193 17.048C55.4873 17.048 55.4553 17.048 55.4233 17.048C55.4073 17.064 55.3833 17.072 55.3513 17.072C55.1913 17.056 55.0393 17.056 54.8953 17.072C54.7513 17.104 54.5993 17.136 54.4393 17.168ZM85.2448 18.416H85.1248C85.0768 18.416 85.0208 18.408 84.9568 18.392C84.9088 18.392 84.8528 18.392 84.7888 18.392C84.6768 18.408 84.5808 18.384 84.5008 18.32C84.4368 18.272 84.3648 18.208 84.2848 18.128C84.2528 18.096 84.2128 18.056 84.1648 18.008C84.1328 17.976 84.0928 17.952 84.0448 17.936C84.0128 17.92 83.9808 17.88 83.9488 17.816C83.9328 17.784 83.9088 17.744 83.8768 17.696C83.8608 17.648 83.8368 17.6 83.8048 17.552C83.7728 17.472 83.7648 17.384 83.7808 17.288C83.7968 17.24 83.8048 17.192 83.8048 17.144C83.8208 17.112 83.8288 17.072 83.8288 17.024C83.8288 16.864 83.8288 16.712 83.8288 16.568C83.8288 16.408 83.8128 16.248 83.7808 16.088C83.7648 16.04 83.7568 15.992 83.7568 15.944C83.7568 15.88 83.7488 15.816 83.7328 15.752C83.7328 15.64 83.7248 15.552 83.7088 15.488C83.7088 15.408 83.7008 15.336 83.6848 15.272C83.6848 15.208 83.6848 15.144 83.6848 15.08C83.6688 14.968 83.6608 14.864 83.6608 14.768C83.6608 14.672 83.6448 14.568 83.6128 14.456V14.384C83.6128 14.176 83.5968 13.976 83.5648 13.784C83.5488 13.576 83.5408 13.368 83.5408 13.16C83.5408 13.064 83.5328 12.992 83.5168 12.944C83.5008 12.8 83.4848 12.656 83.4688 12.512C83.4688 12.352 83.4688 12.192 83.4688 12.032C83.4688 11.888 83.4688 11.744 83.4688 11.6C83.4688 11.44 83.4528 11.288 83.4208 11.144C83.4048 11.112 83.3968 11.072 83.3968 11.024C83.3968 10.976 83.3968 10.936 83.3968 10.904C83.3968 10.248 83.3968 9.592 83.3968 8.936C83.3968 8.28 83.4048 7.632 83.4208 6.992C83.4208 6.912 83.4208 6.832 83.4208 6.752C83.4368 6.672 83.4448 6.592 83.4448 6.512C83.4448 6.464 83.4448 6.416 83.4448 6.368C83.4608 6.32 83.4688 6.28 83.4688 6.248C83.4688 6.072 83.4688 5.896 83.4688 5.72C83.4848 5.528 83.5008 5.344 83.5168 5.168C83.5488 5.12 83.5488 5.056 83.5168 4.976C83.5008 4.96 83.4768 4.952 83.4448 4.952L83.3728 5.024C83.3408 5.072 83.3008 5.12 83.2528 5.168C83.2048 5.216 83.1648 5.264 83.1328 5.312C83.0688 5.408 82.9968 5.512 82.9168 5.624C82.8528 5.72 82.7808 5.824 82.7008 5.936C82.5888 6.128 82.4688 6.328 82.3408 6.536C82.2128 6.728 82.1168 6.936 82.0528 7.16C82.0368 7.192 82.0208 7.232 82.0048 7.28C81.9888 7.312 81.9728 7.344 81.9568 7.376C81.8928 7.536 81.8208 7.696 81.7408 7.856C81.6768 8 81.6128 8.16 81.5488 8.336C81.4528 8.544 81.3168 8.736 81.1408 8.912C81.1088 8.944 81.0768 8.96 81.0448 8.96C80.9648 9.008 80.8768 9.056 80.7808 9.104C80.6848 9.136 80.5808 9.144 80.4688 9.128H80.3248C80.1808 9.16 80.0608 9.128 79.9648 9.032C79.8528 9 79.7568 8.944 79.6768 8.864C79.6128 8.784 79.5408 8.696 79.4608 8.6C79.3968 8.52 79.3408 8.424 79.2928 8.312C79.2608 8.2 79.2448 8.088 79.2448 7.976C79.2288 7.944 79.2208 7.904 79.2208 7.856C79.2208 7.808 79.2208 7.768 79.2208 7.736C79.2048 7.704 79.1888 7.672 79.1728 7.64C79.1568 7.592 79.1488 7.56 79.1488 7.544C79.1488 7.512 79.1328 7.464 79.1008 7.4C79.0688 7.336 79.0048 7.208 78.9088 7.016C78.8128 6.824 78.7648 6.736 78.7648 6.752C78.7168 6.672 78.6688 6.584 78.6208 6.488C78.5728 6.392 78.5168 6.304 78.4528 6.224L78.3088 5.96C78.2768 5.96 78.2528 5.952 78.2368 5.936L78.2128 5.96C78.2128 6.008 78.2128 6.056 78.2128 6.104C78.2128 6.152 78.2208 6.2 78.2368 6.248C78.2688 6.424 78.2848 6.6 78.2848 6.776C78.2848 6.952 78.2688 7.128 78.2368 7.304C78.2368 7.4 78.2448 7.48 78.2608 7.544C78.2768 7.576 78.2848 7.632 78.2848 7.712C78.2848 7.808 78.2848 7.904 78.2848 8C78.3008 8.096 78.3008 8.192 78.2848 8.288C78.2688 8.368 78.2608 8.456 78.2608 8.552C78.2768 8.632 78.2928 8.712 78.3088 8.792V9.032C78.2768 9.128 78.2768 9.232 78.3088 9.344C78.3248 9.424 78.3248 9.512 78.3088 9.608C78.3088 9.688 78.3168 9.768 78.3328 9.848C78.3328 9.928 78.3168 10.032 78.2848 10.16C78.1888 10.544 78.2128 10.912 78.3568 11.264C78.3728 11.328 78.3888 11.392 78.4048 11.456C78.4208 11.504 78.4208 11.56 78.4048 11.624C78.4048 11.672 78.4048 11.72 78.4048 11.768C78.4048 11.816 78.4128 11.864 78.4288 11.912C78.4608 11.976 78.4768 12.04 78.4768 12.104C78.4928 12.28 78.5008 12.416 78.5008 12.512C78.5168 12.608 78.5328 12.68 78.5488 12.728C78.5808 12.904 78.6128 13.088 78.6448 13.28C78.6768 13.456 78.7088 13.632 78.7408 13.808C78.7728 14.016 78.8048 14.224 78.8368 14.432C78.8848 14.624 78.9088 14.824 78.9088 15.032C78.9088 15.096 78.9168 15.144 78.9328 15.176C78.9648 15.304 78.9808 15.44 78.9808 15.584C78.9808 15.712 78.9888 15.84 79.0048 15.968C79.0048 16.144 78.9648 16.28 78.8848 16.376C78.8528 16.44 78.8368 16.48 78.8368 16.496C78.6928 16.8 78.4368 16.976 78.0688 17.024C78.0208 17.04 77.9728 17.048 77.9248 17.048C77.8768 17.048 77.8288 17.048 77.7808 17.048C77.6048 17.08 77.4768 17.048 77.3968 16.952C77.3648 16.92 77.3328 16.904 77.3008 16.904C77.2208 16.92 77.1408 16.872 77.0608 16.76C77.0128 16.68 76.9408 16.608 76.8448 16.544C76.7968 16.496 76.7568 16.416 76.7248 16.304C76.7088 16.272 76.6928 16.24 76.6768 16.208C76.6768 16.176 76.6768 16.144 76.6768 16.112C76.6608 15.888 76.6368 15.672 76.6048 15.464C76.5728 15.24 76.5488 15.024 76.5328 14.816L76.5088 14.576C76.4928 14.512 76.4848 14.456 76.4848 14.408C76.4848 14.36 76.4768 14.304 76.4608 14.24V14.096C76.4128 13.872 76.3888 13.648 76.3888 13.424C76.3888 13.184 76.3968 12.952 76.4128 12.728C76.4288 12.584 76.4368 12.44 76.4368 12.296C76.4368 12.136 76.4448 11.984 76.4608 11.84V11.288C76.4608 11.208 76.4608 11.128 76.4608 11.048C76.4608 10.952 76.4528 10.864 76.4368 10.784C76.4208 10.688 76.4128 10.592 76.4128 10.496C76.4128 10.4 76.4128 10.304 76.4128 10.208V9.104C76.3968 8.976 76.3888 8.848 76.3888 8.72C76.3888 8.576 76.3888 8.44 76.3888 8.312C76.3888 8.264 76.3888 8.216 76.3888 8.168C76.3888 8.104 76.3808 8.048 76.3648 8C76.3648 7.92 76.3568 7.848 76.3408 7.784C76.3408 7.704 76.3328 7.632 76.3168 7.568V7.4C76.2848 7.256 76.2688 7.12 76.2688 6.992C76.2688 6.848 76.2688 6.704 76.2688 6.56C76.2688 6.432 76.2688 6.304 76.2688 6.176C76.2688 6.032 76.2528 5.904 76.2208 5.792C76.2048 5.744 76.1968 5.696 76.1968 5.648C76.1968 5.6 76.1968 5.552 76.1968 5.504C76.1968 5.392 76.1968 5.288 76.1968 5.192C76.1968 5.08 76.1808 4.968 76.1488 4.856C76.1328 4.824 76.1248 4.768 76.1248 4.688V3.488C76.1248 3.408 76.1248 3.336 76.1248 3.272C76.1248 3.192 76.1088 3.12 76.0768 3.056C76.0288 2.896 76.0368 2.712 76.1008 2.504C76.1328 2.424 76.1648 2.368 76.1968 2.336C76.2288 2.288 76.2608 2.24 76.2928 2.192C76.3248 2.144 76.3488 2.096 76.3648 2.048C76.3968 2 76.4208 1.976 76.4368 1.976C76.5008 1.96 76.5488 1.936 76.5808 1.904C76.6288 1.872 76.6688 1.84 76.7008 1.808L76.8448 1.736C76.8768 1.72 76.9248 1.712 76.9888 1.712C77.0688 1.728 77.1488 1.744 77.2288 1.76C77.3248 1.76 77.4128 1.768 77.4928 1.784C77.5888 1.784 77.6608 1.824 77.7088 1.904C77.7888 2.016 77.8688 2.128 77.9488 2.24C78.0288 2.352 78.0928 2.472 78.1408 2.6C78.1888 2.712 78.2528 2.808 78.3328 2.888C78.4288 3.016 78.5248 3.144 78.6208 3.272C78.7168 3.4 78.8208 3.528 78.9328 3.656C78.9808 3.704 79.0208 3.76 79.0528 3.824C79.1008 3.888 79.1408 3.952 79.1728 4.016C79.2528 4.128 79.3248 4.24 79.3888 4.352C79.4688 4.448 79.5488 4.552 79.6288 4.664L79.9888 5.24C80.0208 5.304 80.0528 5.368 80.0848 5.432C80.1168 5.48 80.1488 5.528 80.1808 5.576C80.2128 5.656 80.2608 5.664 80.3248 5.6C80.3888 5.52 80.4528 5.44 80.5168 5.36C80.5968 5.264 80.6688 5.176 80.7328 5.096C80.8768 4.92 81.0208 4.736 81.1648 4.544C81.3088 4.352 81.4608 4.168 81.6208 3.992L81.7648 3.776C81.8768 3.616 81.9808 3.464 82.0768 3.32C82.1888 3.16 82.2928 3 82.3888 2.84C82.5008 2.664 82.5968 2.488 82.6768 2.312C82.7728 2.136 82.8528 1.96 82.9168 1.784L83.2048 1.136C83.3008 0.943999 83.4368 0.783999 83.6128 0.655999C83.8528 0.463999 84.1168 0.391999 84.4048 0.439999C84.5168 0.455999 84.6208 0.487999 84.7168 0.535999C84.8128 0.567999 84.9088 0.599999 85.0048 0.631999C85.1008 0.664 85.1648 0.736 85.1968 0.847999C85.2288 0.895999 85.2528 0.943999 85.2688 0.991999C85.2848 1.04 85.2928 1.088 85.2928 1.136C85.3088 1.248 85.3328 1.352 85.3648 1.448C85.3968 1.528 85.4208 1.624 85.4368 1.736L85.4608 1.976C85.4928 2.12 85.5248 2.264 85.5568 2.408C85.6048 2.552 85.6448 2.696 85.6768 2.84V2.888C85.6928 3.048 85.7088 3.208 85.7248 3.368C85.7568 3.512 85.7648 3.664 85.7488 3.824V4.376C85.7488 4.456 85.7488 4.536 85.7488 4.616C85.7488 4.696 85.7408 4.776 85.7248 4.856C85.7088 4.968 85.7008 5.08 85.7008 5.192C85.7008 5.288 85.7008 5.392 85.7008 5.504C85.6848 5.568 85.6768 5.632 85.6768 5.696C85.6768 5.76 85.6688 5.824 85.6528 5.888C85.6368 5.952 85.6288 6.016 85.6288 6.08C85.6288 6.128 85.6288 6.192 85.6288 6.272V6.944C85.6288 7.056 85.6208 7.16 85.6048 7.256C85.6048 7.352 85.5968 7.456 85.5808 7.568C85.5648 7.632 85.5568 7.696 85.5568 7.76C85.5568 7.808 85.5568 7.864 85.5568 7.928V9.392C85.5568 9.504 85.5568 9.616 85.5568 9.728C85.5728 9.84 85.5888 9.952 85.6048 10.064C85.6208 10.144 85.6288 10.232 85.6288 10.328C85.6288 10.408 85.6288 10.488 85.6288 10.568C85.6448 10.68 85.6528 10.792 85.6528 10.904C85.6528 11 85.6608 11.112 85.6768 11.24V11.504C85.6928 11.632 85.7008 11.768 85.7008 11.912C85.7008 12.04 85.7008 12.168 85.7008 12.296V12.608C85.7328 12.72 85.7488 12.84 85.7488 12.968C85.7488 13.096 85.7568 13.224 85.7728 13.352V13.52C85.8048 13.616 85.8208 13.712 85.8208 13.808C85.8208 13.904 85.8288 14 85.8448 14.096L85.9168 14.96C85.9328 15.024 85.9408 15.088 85.9408 15.152C85.9568 15.2 85.9648 15.256 85.9648 15.32C85.9808 15.384 85.9888 15.448 85.9888 15.512C85.9888 15.56 85.9968 15.616 86.0128 15.68C86.0128 15.696 86.0128 15.72 86.0128 15.752C86.0288 15.784 86.0368 15.816 86.0368 15.848C86.0368 15.96 86.0448 16.08 86.0608 16.208C86.0928 16.336 86.1168 16.464 86.1328 16.592L86.2288 17.264C86.2288 17.36 86.2208 17.424 86.2048 17.456C86.1888 17.552 86.1488 17.64 86.0848 17.72C86.0368 17.816 85.9968 17.904 85.9648 17.984C85.9648 18 85.9568 18.008 85.9408 18.008C85.8288 18.104 85.7168 18.184 85.6048 18.248C85.4928 18.328 85.3728 18.384 85.2448 18.416ZM94.5486 17.48C94.3886 17.464 94.2286 17.44 94.0686 17.408C93.9246 17.392 93.7806 17.352 93.6366 17.288L93.0366 17.072C92.8286 16.992 92.6366 16.904 92.4606 16.808C92.2846 16.696 92.1086 16.584 91.9326 16.472C91.8526 16.392 91.7726 16.32 91.6926 16.256C91.6126 16.176 91.5326 16.104 91.4526 16.04C91.3246 15.912 91.1966 15.784 91.0686 15.656C90.9406 15.512 90.8206 15.36 90.7086 15.2L90.1326 14.312C89.9886 14.088 89.8606 13.856 89.7486 13.616C89.6366 13.36 89.5406 13.104 89.4606 12.848C89.2846 12.368 89.1966 11.896 89.1966 11.432V11.048C89.1966 10.648 89.2206 10.256 89.2686 9.872C89.3006 9.552 89.3726 9.264 89.4846 9.008C89.5486 8.848 89.6046 8.688 89.6526 8.528C89.7006 8.368 89.7566 8.216 89.8206 8.072L89.8926 7.904C89.9246 7.696 89.9966 7.512 90.1086 7.352C90.2206 7.176 90.3166 7.008 90.3966 6.848C90.4606 6.72 90.5326 6.608 90.6126 6.512C90.6926 6.4 90.7646 6.288 90.8286 6.176C90.8606 6.128 90.9006 6.088 90.9486 6.056C90.9966 6.008 91.0366 5.96 91.0686 5.912C91.1006 5.88 91.1246 5.84 91.1406 5.792C91.1726 5.728 91.1966 5.672 91.2126 5.624C91.2446 5.576 91.3006 5.512 91.3806 5.432C91.4766 5.384 91.5646 5.272 91.6446 5.096C91.6766 5.032 91.7086 4.984 91.7406 4.952C91.8366 4.872 91.9166 4.776 91.9806 4.664C92.0606 4.552 92.1486 4.448 92.2446 4.352C92.3086 4.288 92.3406 4.2 92.3406 4.088C92.3406 4.008 92.3406 3.936 92.3406 3.872C92.3566 3.792 92.3566 3.72 92.3406 3.656C92.3246 3.576 92.3486 3.504 92.4126 3.44C92.4446 3.408 92.4686 3.368 92.4846 3.32C92.5006 3.272 92.5166 3.224 92.5326 3.176C92.5806 3.016 92.7086 2.88 92.9166 2.768C92.9486 2.736 92.9886 2.72 93.0366 2.72C93.1006 2.704 93.1566 2.688 93.2046 2.672C93.3166 2.624 93.4446 2.616 93.5886 2.648C93.6526 2.664 93.7086 2.672 93.7566 2.672C93.8046 2.656 93.8526 2.64 93.9006 2.624C93.9646 2.592 94.0206 2.568 94.0686 2.552C94.1326 2.536 94.1886 2.52 94.2366 2.504C94.4606 2.424 94.6926 2.432 94.9326 2.528C95.1886 2.624 95.3726 2.792 95.4846 3.032C95.5166 3.112 95.5486 3.192 95.5806 3.272C95.6126 3.352 95.6366 3.432 95.6526 3.512C95.6846 3.688 95.6766 3.84 95.6286 3.968C95.5966 4.032 95.5806 4.072 95.5806 4.088C95.5646 4.152 95.5806 4.208 95.6286 4.256C95.6606 4.304 95.7006 4.344 95.7486 4.376C95.9246 4.536 96.0926 4.696 96.2526 4.856C96.4126 5 96.5646 5.16 96.7086 5.336C96.8366 5.464 96.9406 5.6 97.0206 5.744C97.1166 5.872 97.2046 6.016 97.2846 6.176C97.3166 6.256 97.3566 6.344 97.4046 6.44C97.4526 6.52 97.5006 6.6 97.5486 6.68C97.6286 6.824 97.6926 6.976 97.7406 7.136C97.8046 7.296 97.8686 7.456 97.9326 7.616V7.64C97.9646 7.752 97.9886 7.872 98.0046 8C98.0366 8.112 98.0846 8.232 98.1486 8.36C98.1966 8.472 98.2366 8.592 98.2686 8.72C98.3006 8.832 98.3326 8.952 98.3646 9.08C98.3966 9.224 98.4286 9.368 98.4606 9.512C98.5086 9.656 98.5406 9.8 98.5566 9.944C98.5726 10.008 98.5886 10.072 98.6046 10.136C98.6206 10.184 98.6366 10.24 98.6526 10.304C98.6846 10.448 98.7166 10.592 98.7486 10.736C98.7806 10.88 98.8046 11.024 98.8206 11.168L98.8926 11.336C98.9246 11.432 98.9566 11.56 98.9886 11.72C99.0366 11.928 99.0606 12.136 99.0606 12.344C99.0766 12.552 99.0766 12.768 99.0606 12.992C99.0606 13.104 99.0526 13.192 99.0366 13.256C98.9406 13.592 98.8206 13.936 98.6766 14.288C98.6126 14.4 98.5486 14.512 98.4846 14.624C98.4206 14.72 98.3566 14.824 98.2926 14.936L98.0766 15.272C97.9966 15.416 97.9086 15.544 97.8126 15.656C97.6526 15.912 97.4606 16.136 97.2366 16.328C97.0126 16.52 96.7726 16.704 96.5166 16.88C95.9566 17.312 95.3006 17.512 94.5486 17.48ZM94.4526 15.104C94.7886 15.104 95.0766 15.008 95.3166 14.816C95.3966 14.736 95.4766 14.664 95.5566 14.6C95.6526 14.52 95.7326 14.44 95.7966 14.36C96.1006 14.024 96.3406 13.672 96.5166 13.304L96.5886 13.064C96.6206 12.776 96.6206 12.488 96.5886 12.2L96.4446 11.408C96.3966 11.2 96.3566 11 96.3246 10.808C96.2926 10.6 96.2446 10.4 96.1806 10.208C96.1326 10.096 96.1166 10.008 96.1326 9.944C96.1486 9.864 96.1486 9.784 96.1326 9.704C96.1166 9.624 96.0926 9.544 96.0606 9.464C96.0126 9.256 95.9566 9.048 95.8926 8.84C95.8286 8.632 95.7646 8.424 95.7006 8.216C95.6846 8.168 95.6686 8.12 95.6526 8.072C95.6366 8.024 95.6206 7.976 95.6046 7.928C95.4926 7.704 95.3726 7.488 95.2446 7.28C95.1166 7.072 94.9726 6.88 94.8126 6.704C94.7326 6.608 94.6446 6.52 94.5486 6.44C94.4526 6.344 94.3566 6.256 94.2606 6.176C94.2446 6.144 94.2206 6.128 94.1886 6.128C94.1726 6.112 94.1486 6.096 94.1166 6.08C94.0686 6.016 94.0046 6.024 93.9246 6.104C93.8446 6.184 93.7566 6.272 93.6606 6.368C93.5806 6.464 93.5006 6.56 93.4206 6.656C93.3406 6.768 93.2526 6.88 93.1566 6.992C93.0766 7.104 92.9966 7.216 92.9166 7.328C92.8046 7.472 92.7006 7.616 92.6046 7.76C92.5086 7.904 92.4126 8.048 92.3166 8.192C91.9806 8.736 91.7166 9.336 91.5246 9.992C91.4926 10.088 91.4766 10.16 91.4766 10.208C91.4606 10.32 91.4446 10.432 91.4286 10.544C91.4286 10.656 91.4286 10.776 91.4286 10.904V11.096C91.4446 11.144 91.4526 11.192 91.4526 11.24C91.4526 11.288 91.4606 11.336 91.4766 11.384C91.4766 11.576 91.5246 11.784 91.6206 12.008C91.7486 12.328 91.8926 12.64 92.0526 12.944C92.2126 13.248 92.3966 13.536 92.6046 13.808C92.6526 13.872 92.7006 13.936 92.7486 14C92.8126 14.064 92.8686 14.128 92.9166 14.192C93.0606 14.352 93.2126 14.496 93.3726 14.624C93.5486 14.752 93.7246 14.864 93.9006 14.96C94.0926 15.056 94.2766 15.104 94.4526 15.104ZM105.569 17.24C105.553 17.224 105.529 17.216 105.497 17.216C105.337 17.12 105.177 17.032 105.017 16.952C104.873 16.856 104.737 16.752 104.609 16.64C104.545 16.608 104.505 16.576 104.489 16.544C104.345 16.464 104.217 16.368 104.105 16.256C103.993 16.128 103.889 15.992 103.793 15.848C103.761 15.816 103.729 15.776 103.697 15.728C103.665 15.68 103.625 15.632 103.577 15.584C103.417 15.424 103.289 15.232 103.193 15.008C103.177 14.96 103.153 14.912 103.121 14.864C103.089 14.816 103.057 14.768 103.025 14.72C102.929 14.592 102.857 14.472 102.809 14.36C102.777 14.232 102.729 14.112 102.665 14C102.601 13.872 102.537 13.752 102.473 13.64C102.457 13.576 102.433 13.512 102.401 13.448C102.369 13.384 102.345 13.32 102.329 13.256C102.329 13.176 102.305 13.088 102.257 12.992C102.193 12.816 102.129 12.64 102.065 12.464C102.017 12.272 101.969 12.08 101.921 11.888C101.889 11.824 101.873 11.776 101.873 11.744C101.777 11.536 101.705 11.32 101.657 11.096C101.609 10.872 101.561 10.656 101.513 10.448L101.369 9.368C101.353 9.336 101.345 9.296 101.345 9.248C101.345 9.2 101.345 9.16 101.345 9.128C101.345 9.032 101.345 8.944 101.345 8.864C101.345 8.768 101.329 8.672 101.297 8.576C101.265 8.368 101.273 8.176 101.321 8C101.321 7.936 101.321 7.88 101.321 7.832C101.337 7.768 101.345 7.704 101.345 7.64C101.345 7.56 101.345 7.48 101.345 7.4C101.361 7.304 101.377 7.224 101.393 7.16C101.409 7.112 101.417 7.048 101.417 6.968C101.449 6.824 101.465 6.688 101.465 6.56C101.481 6.416 101.497 6.28 101.513 6.152C101.561 5.928 101.585 5.712 101.585 5.504C101.585 5.44 101.585 5.384 101.585 5.336C101.601 5.272 101.617 5.208 101.633 5.144C101.633 5 101.625 4.896 101.609 4.832C101.561 4.768 101.553 4.68 101.585 4.568C101.617 4.504 101.633 4.456 101.633 4.424C101.649 4.392 101.657 4.36 101.657 4.328C101.657 4.28 101.681 4.248 101.729 4.232H101.896C101.961 4.232 102.001 4.208 102.017 4.16C102.033 4.096 102.089 4.048 102.185 4.016C102.265 3.984 102.337 3.96 102.401 3.944C102.465 3.912 102.529 3.872 102.593 3.824C102.641 3.792 102.697 3.776 102.761 3.776C102.825 3.776 102.889 3.784 102.953 3.8L103.385 3.944C103.401 3.96 103.409 3.968 103.409 3.968C103.425 3.968 103.441 3.976 103.457 3.992C103.585 4.12 103.689 4.264 103.769 4.424C103.865 4.584 103.921 4.76 103.937 4.952C103.937 5.016 103.937 5.08 103.937 5.144C103.937 5.192 103.921 5.248 103.889 5.312C103.873 5.408 103.857 5.504 103.84 5.6C103.825 5.696 103.809 5.8 103.793 5.912C103.761 6.072 103.737 6.232 103.721 6.392C103.721 6.536 103.721 6.688 103.721 6.848C103.705 6.912 103.697 6.976 103.697 7.04C103.697 7.088 103.689 7.144 103.673 7.208C103.657 7.4 103.649 7.592 103.649 7.784C103.649 7.976 103.665 8.16 103.697 8.336C103.697 8.352 103.697 8.376 103.697 8.408C103.713 8.44 103.713 8.472 103.697 8.504C103.697 8.664 103.713 8.832 103.745 9.008C103.777 9.184 103.801 9.36 103.817 9.536C103.833 9.696 103.849 9.848 103.865 9.992C103.881 10.136 103.905 10.28 103.937 10.424C103.969 10.488 103.985 10.552 103.985 10.616C104.001 10.68 104.017 10.744 104.033 10.808C104.097 11.112 104.169 11.408 104.249 11.696C104.329 11.984 104.433 12.272 104.561 12.56C104.641 12.736 104.721 12.888 104.801 13.016C104.929 13.24 105.041 13.464 105.137 13.688C105.201 13.8 105.265 13.912 105.329 14.024C105.393 14.12 105.457 14.224 105.521 14.336C105.585 14.416 105.649 14.488 105.713 14.552C105.777 14.616 105.841 14.688 105.905 14.768C105.985 14.848 106.089 14.872 106.217 14.84C106.297 14.808 106.353 14.776 106.385 14.744C106.465 14.696 106.537 14.648 106.601 14.6C106.681 14.552 106.753 14.496 106.817 14.432C106.993 14.256 107.153 14.08 107.297 13.904C107.457 13.728 107.593 13.536 107.705 13.328C107.801 13.152 107.897 12.968 107.993 12.776C108.089 12.584 108.177 12.392 108.257 12.2C108.353 11.976 108.441 11.752 108.521 11.528C108.617 11.304 108.705 11.072 108.785 10.832C108.849 10.672 108.897 10.512 108.929 10.352C108.977 10.176 109.009 10.008 109.025 9.848C109.057 9.672 109.081 9.496 109.097 9.32C109.129 9.128 109.137 8.944 109.121 8.768C109.121 8.72 109.121 8.672 109.121 8.624C109.137 8.576 109.145 8.528 109.145 8.48C109.177 8.368 109.185 8.264 109.169 8.168C109.169 8.072 109.161 7.976 109.145 7.88C109.129 7.608 109.105 7.352 109.073 7.112C109.057 6.856 109.041 6.6 109.025 6.344C109.025 6.216 109.017 6.128 109.001 6.08C108.985 5.936 108.969 5.792 108.953 5.648C108.953 5.504 108.937 5.36 108.905 5.216V5.024C108.905 4.864 108.897 4.712 108.881 4.568C108.881 4.408 108.881 4.248 108.881 4.088C108.881 3.96 108.873 3.848 108.857 3.752C108.857 3.64 108.857 3.528 108.857 3.416C108.857 3.272 108.881 3.152 108.929 3.056C108.977 2.976 108.993 2.912 108.977 2.864C108.929 2.768 108.953 2.696 109.049 2.648C109.129 2.568 109.209 2.504 109.289 2.456C109.385 2.408 109.489 2.376 109.601 2.36C109.633 2.344 109.657 2.336 109.673 2.336C109.705 2.336 109.729 2.328 109.745 2.312C109.841 2.232 109.969 2.208 110.129 2.24C110.161 2.256 110.209 2.264 110.273 2.264C110.417 2.296 110.521 2.352 110.585 2.432C110.633 2.48 110.705 2.536 110.801 2.6C110.929 2.664 111.017 2.744 111.065 2.84C111.113 2.936 111.145 3.04 111.161 3.152C111.193 3.312 111.217 3.464 111.233 3.608C111.265 3.752 111.273 3.904 111.257 4.064V4.28C111.257 4.44 111.257 4.6 111.257 4.76C111.273 4.904 111.289 5.056 111.305 5.216C111.321 5.264 111.329 5.32 111.329 5.384C111.329 5.432 111.329 5.48 111.329 5.528C111.329 5.624 111.329 5.72 111.329 5.816C111.345 5.896 111.361 5.984 111.377 6.08C111.393 6.112 111.401 6.16 111.401 6.224C111.385 6.384 111.385 6.544 111.401 6.704C111.433 6.848 111.457 7 111.473 7.16C111.489 7.32 111.497 7.488 111.497 7.664C111.513 7.84 111.521 8.016 111.521 8.192C111.537 8.208 111.537 8.232 111.521 8.264C111.521 8.296 111.521 8.328 111.521 8.36C111.473 8.504 111.465 8.672 111.497 8.864C111.529 9.072 111.521 9.272 111.473 9.464C111.457 9.608 111.441 9.752 111.425 9.896C111.409 10.04 111.385 10.192 111.353 10.352C111.321 10.608 111.265 10.864 111.185 11.12C111.105 11.376 111.025 11.632 110.945 11.888C110.945 11.92 110.921 11.976 110.873 12.056C110.809 12.168 110.753 12.288 110.705 12.416C110.657 12.528 110.617 12.648 110.585 12.776L110.513 12.944C110.433 13.104 110.361 13.264 110.297 13.424C110.249 13.568 110.185 13.72 110.105 13.88C110.057 13.976 110.009 14.072 109.961 14.168C109.913 14.264 109.857 14.352 109.793 14.432C109.777 14.464 109.753 14.496 109.721 14.528C109.689 14.64 109.641 14.744 109.577 14.84C109.513 14.936 109.449 15.032 109.385 15.128C109.209 15.4 109.001 15.656 108.761 15.896C108.537 16.136 108.289 16.36 108.017 16.568L107.729 16.736C107.505 16.848 107.265 16.944 107.009 17.024C106.769 17.104 106.521 17.16 106.265 17.192C106.185 17.208 106.097 17.208 106.001 17.192C105.953 17.192 105.905 17.192 105.857 17.192C105.809 17.192 105.761 17.208 105.713 17.24H105.569ZM122.823 17.216C122.775 17.2 122.719 17.184 122.655 17.168C122.607 17.152 122.559 17.136 122.511 17.12C122.383 17.072 122.255 17.008 122.127 16.928C122.063 16.896 122.015 16.848 121.983 16.784C121.871 16.608 121.767 16.448 121.671 16.304C121.575 16.144 121.471 15.984 121.359 15.824L121.143 15.44C121.031 15.216 120.919 15 120.807 14.792C120.695 14.568 120.583 14.352 120.471 14.144C120.439 14.064 120.399 14 120.351 13.952C120.319 13.888 120.287 13.824 120.255 13.76C120.143 13.584 120.039 13.408 119.943 13.232C119.847 13.04 119.751 12.856 119.655 12.68L119.055 11.504C118.895 11.184 118.735 10.872 118.575 10.568C118.415 10.248 118.255 9.928 118.095 9.608C118.063 9.576 118.031 9.528 117.999 9.464C117.935 9.288 117.855 9.12 117.759 8.96C117.679 8.8 117.599 8.64 117.519 8.48C117.455 8.368 117.399 8.256 117.351 8.144C117.303 8.016 117.247 7.896 117.183 7.784L116.919 7.304C116.887 7.304 116.863 7.296 116.847 7.28C116.847 7.28 116.839 7.288 116.823 7.304C116.823 7.304 116.823 7.312 116.823 7.328C116.807 7.536 116.791 7.752 116.775 7.976C116.759 8.2 116.759 8.424 116.775 8.648C116.807 8.744 116.807 8.848 116.775 8.96C116.743 9.248 116.751 9.504 116.799 9.728C116.815 9.792 116.815 9.856 116.799 9.92C116.799 9.984 116.791 10.056 116.775 10.136C116.759 10.248 116.751 10.352 116.751 10.448C116.751 10.544 116.743 10.648 116.727 10.76C116.759 10.824 116.775 10.896 116.775 10.976C116.775 11.04 116.767 11.104 116.751 11.168C116.703 11.328 116.703 11.496 116.751 11.672C116.783 11.72 116.783 11.768 116.751 11.816C116.687 11.96 116.671 12.136 116.703 12.344C116.751 12.616 116.735 12.912 116.655 13.232C116.639 13.264 116.631 13.32 116.631 13.4C116.615 13.464 116.631 13.52 116.679 13.568C116.743 13.6 116.759 13.64 116.727 13.688C116.711 13.896 116.711 14.112 116.727 14.336C116.727 14.336 116.727 14.344 116.727 14.36C116.727 14.36 116.719 14.36 116.703 14.36C116.687 14.36 116.679 14.352 116.679 14.336C116.663 14.32 116.655 14.304 116.655 14.288C116.623 14.256 116.607 14.264 116.607 14.312C116.607 14.392 116.615 14.44 116.631 14.456C116.663 14.536 116.679 14.616 116.679 14.696C116.679 14.776 116.679 14.856 116.679 14.936V15.68C116.679 15.728 116.671 15.776 116.655 15.824C116.655 15.872 116.631 15.912 116.583 15.944C116.519 15.96 116.487 16.016 116.487 16.112C116.471 16.288 116.407 16.44 116.295 16.568C116.199 16.696 116.087 16.808 115.959 16.904C115.895 16.952 115.815 16.984 115.719 17C115.639 17 115.559 16.992 115.479 16.976L115.047 16.832C115.015 16.832 114.983 16.808 114.951 16.76C114.903 16.712 114.855 16.664 114.807 16.616C114.759 16.552 114.703 16.496 114.639 16.448C114.559 16.4 114.503 16.312 114.471 16.184C114.455 16.104 114.431 16.016 114.399 15.92C114.367 15.824 114.351 15.728 114.351 15.632C114.351 15.52 114.351 15.416 114.351 15.32C114.367 15.224 114.375 15.12 114.375 15.008C114.391 14.928 114.399 14.856 114.399 14.792C114.399 14.712 114.407 14.632 114.423 14.552V5.768C114.423 5.688 114.423 5.608 114.423 5.528C114.439 5.448 114.455 5.376 114.471 5.312C114.471 5.232 114.471 5.152 114.471 5.072C114.487 4.992 114.495 4.912 114.495 4.832C114.495 4.736 114.495 4.64 114.495 4.544C114.511 4.448 114.527 4.36 114.543 4.28C114.559 4.216 114.567 4.16 114.567 4.112C114.567 4.064 114.567 4.008 114.567 3.944V3.2C114.567 3.088 114.575 2.992 114.591 2.912C114.623 2.816 114.647 2.72 114.663 2.624L114.735 2.504C114.783 2.456 114.823 2.384 114.855 2.288C114.887 2.192 114.935 2.144 114.999 2.144C115.047 2.112 115.095 2.088 115.143 2.072C115.191 2.04 115.223 1.992 115.239 1.928L115.263 1.904C115.279 1.904 115.295 1.904 115.311 1.904C115.327 1.888 115.343 1.88 115.359 1.88C115.423 1.88 115.471 1.864 115.503 1.832C115.551 1.8 115.607 1.792 115.671 1.808C115.735 1.824 115.799 1.832 115.863 1.832C115.927 1.832 115.991 1.84 116.055 1.856C116.407 1.92 116.655 2.128 116.799 2.48L116.943 2.96C116.959 3.12 117.031 3.272 117.159 3.416C117.255 3.528 117.351 3.648 117.447 3.776C117.543 3.904 117.647 4.032 117.759 4.16C118.175 4.688 118.559 5.28 118.911 5.936C118.943 6 118.975 6.064 119.007 6.128C119.039 6.192 119.071 6.256 119.103 6.32L120.351 8.84C120.447 9.016 120.535 9.2 120.615 9.392C120.711 9.568 120.815 9.744 120.927 9.92C120.959 9.984 120.991 10.048 121.023 10.112C121.055 10.16 121.079 10.216 121.095 10.28C121.175 10.472 121.271 10.664 121.383 10.856C121.383 10.856 121.383 10.864 121.383 10.88C121.399 10.88 121.407 10.872 121.407 10.856C121.423 10.856 121.431 10.856 121.431 10.856C121.447 10.84 121.455 10.832 121.455 10.832L121.527 9.992V9.752C121.543 9.672 121.551 9.592 121.551 9.512C121.567 9.416 121.583 9.328 121.599 9.248C121.615 9.2 121.615 9.144 121.599 9.08C121.599 9.016 121.607 8.952 121.623 8.888C121.623 8.792 121.623 8.696 121.623 8.6C121.639 8.488 121.655 8.384 121.671 8.288C121.687 8.24 121.695 8.192 121.695 8.144C121.695 8.08 121.695 8.024 121.695 7.976V7.328H121.671V6.68C121.671 6.6 121.671 6.52 121.671 6.44C121.671 6.36 121.655 6.28 121.623 6.2C121.607 6.152 121.599 6.08 121.599 5.984L121.623 5.816C121.623 5.768 121.615 5.728 121.599 5.696C121.599 5.648 121.599 5.6 121.599 5.552C121.615 5.488 121.607 5.424 121.575 5.36C121.543 5.296 121.527 5.232 121.527 5.168C121.543 5.104 121.551 5.04 121.551 4.976C121.551 4.912 121.551 4.848 121.551 4.784C121.551 4.72 121.519 4.688 121.455 4.688C121.439 4.688 121.431 4.672 121.431 4.64C121.415 4.592 121.415 4.552 121.431 4.52C121.463 4.44 121.479 4.352 121.479 4.256C121.479 4.16 121.479 4.064 121.479 3.968V3.272C121.463 3.176 121.471 3.08 121.503 2.984C121.535 2.888 121.575 2.8 121.623 2.72L121.719 2.576C121.799 2.496 121.887 2.416 121.983 2.336C122.079 2.256 122.175 2.176 122.271 2.096C122.271 2.096 122.303 2.08 122.367 2.048C122.447 2.032 122.519 2.016 122.583 2C122.663 1.984 122.743 1.984 122.823 2C122.887 2 122.935 2.008 122.967 2.024C123.031 2.056 123.095 2.096 123.159 2.144C123.223 2.176 123.287 2.216 123.351 2.264C123.383 2.28 123.399 2.296 123.399 2.312C123.415 2.328 123.431 2.344 123.447 2.36C123.479 2.392 123.503 2.432 123.519 2.48C123.551 2.512 123.575 2.544 123.591 2.576C123.671 2.64 123.719 2.72 123.735 2.816C123.767 2.896 123.791 2.976 123.807 3.056V4.064C123.807 4.176 123.807 4.288 123.807 4.4C123.823 4.496 123.839 4.6 123.855 4.712C123.871 4.776 123.879 4.84 123.879 4.904C123.879 4.952 123.879 5.008 123.879 5.072C123.879 5.2 123.879 5.336 123.879 5.48C123.895 5.608 123.903 5.736 123.903 5.864V6.032C123.903 6.144 123.895 6.256 123.879 6.368C123.879 6.464 123.879 6.568 123.879 6.68V7.736C123.879 7.896 123.871 8.064 123.855 8.24C123.855 8.4 123.863 8.568 123.879 8.744C123.879 8.808 123.871 8.856 123.855 8.888C123.839 9.048 123.831 9.208 123.831 9.368C123.831 9.512 123.823 9.664 123.807 9.824C123.807 9.888 123.807 9.96 123.807 10.04C123.807 10.12 123.799 10.2 123.783 10.28C123.767 10.344 123.759 10.408 123.759 10.472C123.775 10.536 123.783 10.6 123.783 10.664C123.815 10.808 123.823 10.952 123.807 11.096C123.807 11.24 123.799 11.384 123.783 11.528C123.767 11.784 123.751 12.048 123.735 12.32C123.735 12.576 123.751 12.84 123.783 13.112C123.783 13.176 123.783 13.248 123.783 13.328C123.799 13.408 123.807 13.488 123.807 13.568C123.791 13.808 123.799 14.04 123.831 14.264C123.879 14.488 123.927 14.712 123.975 14.936C124.007 15.096 124.039 15.256 124.071 15.416C124.103 15.56 124.127 15.72 124.143 15.896C124.143 15.96 124.135 16 124.119 16.016C124.103 16.048 124.087 16.088 124.071 16.136C124.055 16.168 124.047 16.2 124.047 16.232C124.031 16.36 123.983 16.48 123.903 16.592C123.839 16.704 123.767 16.816 123.687 16.928C123.479 17.2 123.191 17.296 122.823 17.216ZM131.438 16.976C131.406 16.96 131.358 16.952 131.294 16.952C131.262 16.952 131.23 16.928 131.198 16.88C131.166 16.832 131.134 16.792 131.102 16.76C131.07 16.712 131.038 16.656 131.006 16.592C130.958 16.528 130.918 16.528 130.886 16.592H130.838C130.838 16.576 130.83 16.568 130.814 16.568C130.814 16.552 130.814 16.544 130.814 16.544C130.766 16.32 130.694 16.112 130.598 15.92C130.55 15.792 130.502 15.664 130.454 15.536C130.422 15.392 130.398 15.248 130.382 15.104L130.238 14.048L130.166 13.184V13.136C130.134 12.944 130.118 12.752 130.118 12.56C130.118 12.352 130.118 12.144 130.118 11.936C130.102 11.824 130.094 11.72 130.094 11.624C130.094 11.512 130.086 11.4 130.07 11.288C130.054 11.16 130.038 11.032 130.022 10.904C130.022 10.776 130.022 10.656 130.022 10.544L130.046 8.648V6.08C130.014 5.984 129.966 5.936 129.902 5.936C129.87 5.936 129.83 5.944 129.782 5.96C129.75 5.96 129.718 5.96 129.686 5.96L128.605 6.248C128.462 6.296 128.318 6.344 128.174 6.392C128.03 6.424 127.886 6.464 127.742 6.512C127.63 6.528 127.518 6.544 127.406 6.56C127.31 6.56 127.206 6.56 127.094 6.56C127.014 6.56 126.926 6.528 126.83 6.464C126.718 6.416 126.622 6.352 126.542 6.272C126.462 6.192 126.382 6.104 126.302 6.008L126.254 5.936C126.222 5.824 126.19 5.72 126.158 5.624C126.142 5.512 126.142 5.4 126.158 5.288C126.174 5.144 126.206 5.008 126.254 4.88C126.318 4.752 126.406 4.64 126.518 4.544C126.566 4.512 126.606 4.472 126.638 4.424C126.686 4.376 126.734 4.328 126.782 4.28C126.846 4.248 126.886 4.232 126.902 4.232C126.998 4.232 127.086 4.216 127.166 4.184C127.246 4.136 127.326 4.104 127.406 4.088C127.486 4.072 127.566 4.056 127.646 4.04C127.726 4.024 127.806 4.008 127.886 3.992C128.11 3.928 128.334 3.872 128.558 3.824C128.782 3.76 129.006 3.712 129.23 3.68L130.526 3.464C130.558 3.448 130.582 3.44 130.598 3.44C130.63 3.44 130.654 3.432 130.67 3.416C130.766 3.384 130.862 3.36 130.958 3.344C131.054 3.328 131.15 3.336 131.246 3.368C131.278 3.384 131.302 3.392 131.318 3.392C131.35 3.376 131.374 3.368 131.39 3.368C131.662 3.336 131.934 3.304 132.206 3.272C132.478 3.24 132.742 3.2 132.998 3.152C133.206 3.12 133.414 3.088 133.622 3.056C133.83 3.024 134.038 3 134.246 2.984C134.406 2.952 134.566 2.928 134.726 2.912C134.886 2.896 135.046 2.88 135.206 2.864C135.334 2.848 135.462 2.832 135.59 2.816C135.734 2.8 135.87 2.784 135.998 2.768C136.126 2.752 136.246 2.752 136.358 2.768C136.486 2.768 136.614 2.768 136.742 2.768C136.822 2.768 136.894 2.792 136.958 2.84C137.038 2.888 137.11 2.928 137.174 2.96C137.238 3.008 137.326 3.088 137.438 3.2C137.47 3.232 137.502 3.304 137.534 3.416C137.549 3.464 137.566 3.52 137.582 3.584C137.598 3.632 137.614 3.688 137.63 3.752C137.662 3.896 137.646 4.032 137.582 4.16L137.438 4.496C137.422 4.544 137.398 4.592 137.366 4.64C137.35 4.672 137.326 4.704 137.294 4.736C137.262 4.768 137.246 4.784 137.246 4.784C137.182 4.832 137.11 4.88 137.03 4.928C136.966 4.976 136.886 5.008 136.79 5.024L135.758 5.096C135.662 5.096 135.566 5.104 135.47 5.12C135.374 5.12 135.27 5.128 135.158 5.144H135.038C134.782 5.16 134.534 5.184 134.294 5.216C134.054 5.248 133.814 5.28 133.574 5.312L132.614 5.456C132.566 5.456 132.534 5.464 132.518 5.48C132.454 5.48 132.406 5.528 132.374 5.624V5.696C132.374 5.856 132.374 6.016 132.374 6.176C132.374 6.32 132.382 6.472 132.398 6.632C132.446 6.856 132.446 7.08 132.398 7.304C132.382 7.352 132.366 7.4 132.35 7.448C132.35 7.48 132.35 7.512 132.35 7.544C132.366 7.736 132.35 7.944 132.302 8.168C132.302 8.216 132.302 8.264 132.302 8.312C132.302 8.36 132.31 8.408 132.326 8.456C132.342 8.52 132.35 8.592 132.35 8.672C132.35 8.752 132.35 8.832 132.35 8.912V10.16C132.35 10.224 132.342 10.304 132.326 10.4C132.326 10.48 132.326 10.56 132.326 10.64C132.326 10.704 132.326 10.776 132.326 10.856C132.342 10.936 132.35 11.016 132.35 11.096C132.35 11.208 132.35 11.32 132.35 11.432C132.366 11.544 132.366 11.664 132.35 11.792V12.536C132.35 12.552 132.342 12.568 132.326 12.584C132.326 12.6 132.334 12.624 132.35 12.656C132.366 12.8 132.374 12.952 132.374 13.112C132.374 13.256 132.39 13.4 132.422 13.544C132.422 13.592 132.422 13.64 132.422 13.688C132.438 13.736 132.438 13.784 132.422 13.832C132.422 13.976 132.438 14.128 132.47 14.288C132.502 14.432 132.526 14.576 132.542 14.72C132.574 14.896 132.606 15.072 132.638 15.248C132.686 15.424 132.726 15.6 132.758 15.776L132.83 16.112C132.83 16.16 132.806 16.2 132.758 16.232C132.758 16.232 132.75 16.232 132.734 16.232C132.734 16.232 132.726 16.24 132.71 16.256C132.63 16.288 132.598 16.336 132.614 16.4V16.52C132.614 16.52 132.606 16.528 132.59 16.544C132.59 16.56 132.582 16.568 132.566 16.568C132.486 16.568 132.422 16.6 132.374 16.664C132.326 16.728 132.27 16.784 132.206 16.832C132.158 16.864 132.094 16.896 132.014 16.928C131.806 17.008 131.614 17.024 131.438 16.976ZM148.001 18.752C147.857 18.752 147.729 18.696 147.617 18.584C147.585 18.536 147.553 18.488 147.521 18.44C147.489 18.392 147.457 18.344 147.425 18.296C147.281 17.96 147.209 17.608 147.209 17.24L147.137 16.664C147.089 16.44 147.049 16.216 147.017 15.992C146.985 15.768 146.929 15.552 146.849 15.344L146.705 14.936C146.705 14.904 146.697 14.872 146.681 14.84C146.681 14.808 146.673 14.776 146.657 14.744L146.297 13.472C146.281 13.44 146.265 13.4 146.249 13.352C146.249 13.304 146.233 13.264 146.201 13.232C146.153 13.136 146.113 13.04 146.081 12.944C146.065 12.832 146.041 12.72 146.009 12.608C145.993 12.528 145.977 12.456 145.961 12.392C145.945 12.312 145.921 12.232 145.889 12.152C145.857 12.056 145.825 12 145.793 11.984C145.761 11.952 145.689 11.952 145.577 11.984C145.497 12 145.409 12.016 145.313 12.032C145.233 12.032 145.153 12.048 145.073 12.08C145.009 12.096 144.929 12.112 144.833 12.128C144.753 12.128 144.673 12.136 144.593 12.152L144.257 12.224C144.177 12.24 144.089 12.264 143.993 12.296C143.913 12.312 143.833 12.32 143.753 12.32L143.321 12.392C143.193 12.424 143.057 12.456 142.913 12.488C142.769 12.52 142.633 12.552 142.505 12.584C142.121 12.68 141.737 12.752 141.353 12.8C141.225 12.832 141.153 12.888 141.137 12.968C141.121 12.968 141.113 12.976 141.113 12.992C141.017 13.248 140.905 13.504 140.777 13.76C140.665 14 140.545 14.248 140.417 14.504C140.385 14.568 140.353 14.632 140.321 14.696C140.305 14.744 140.281 14.8 140.249 14.864C140.233 14.896 140.217 14.936 140.201 14.984C140.185 15.016 140.169 15.048 140.153 15.08C140.057 15.192 140.009 15.328 140.009 15.488C139.993 15.584 139.961 15.68 139.913 15.776C139.865 15.856 139.817 15.936 139.769 16.016C139.753 16.064 139.721 16.088 139.673 16.088C139.609 16.104 139.545 16.128 139.481 16.16C139.417 16.192 139.345 16.224 139.265 16.256C139.217 16.272 139.169 16.272 139.121 16.256C139.089 16.24 139.049 16.224 139.001 16.208C138.969 16.176 138.937 16.16 138.905 16.16C138.729 16.144 138.601 16.04 138.521 15.848C138.393 15.592 138.305 15.336 138.257 15.08C138.241 15.016 138.241 14.96 138.257 14.912C138.289 14.864 138.313 14.816 138.329 14.768C138.425 14.704 138.481 14.632 138.497 14.552V14.528C138.497 14.32 138.537 14.128 138.617 13.952C138.713 13.76 138.793 13.576 138.857 13.4C138.889 13.304 138.929 13.208 138.977 13.112C139.025 13.016 139.073 12.92 139.121 12.824C139.185 12.712 139.233 12.608 139.265 12.512C139.313 12.4 139.353 12.288 139.385 12.176C139.433 12.048 139.433 11.928 139.385 11.816C139.353 11.72 139.337 11.632 139.337 11.552C139.337 11.456 139.345 11.36 139.361 11.264C139.361 11.088 139.425 10.936 139.553 10.808C139.617 10.728 139.681 10.664 139.745 10.616C139.825 10.552 139.897 10.488 139.961 10.424C140.105 10.28 140.217 10.088 140.297 9.848C140.361 9.64 140.409 9.432 140.441 9.224C140.489 9 140.537 8.784 140.585 8.576C140.617 8.368 140.649 8.168 140.681 7.976C140.729 7.768 140.777 7.568 140.825 7.376C140.841 7.296 140.857 7.224 140.873 7.16C140.905 7.08 140.929 7.008 140.945 6.944C140.993 6.816 141.041 6.696 141.089 6.584C141.137 6.456 141.169 6.328 141.185 6.2C141.217 6.136 141.217 6.08 141.185 6.032C141.169 5.952 141.169 5.88 141.185 5.816C141.217 5.752 141.241 5.688 141.257 5.624C141.305 5.512 141.337 5.4 141.353 5.288C141.385 5.176 141.425 5.064 141.473 4.952C141.553 4.744 141.617 4.576 141.665 4.448C141.729 4.304 141.785 4.144 141.833 3.968C141.865 3.872 141.897 3.784 141.929 3.704C141.977 3.608 142.009 3.512 142.025 3.416C142.073 3.272 142.113 3.128 142.145 2.984C142.177 2.824 142.193 2.672 142.193 2.528C142.225 2.4 142.257 2.312 142.289 2.264C142.369 2.104 142.465 1.968 142.577 1.856C142.705 1.744 142.825 1.632 142.937 1.52C143.017 1.472 143.097 1.44 143.177 1.424C143.257 1.392 143.337 1.4 143.417 1.448C143.481 1.48 143.521 1.496 143.537 1.496C143.681 1.48 143.801 1.512 143.897 1.592C143.993 1.672 144.073 1.768 144.137 1.88C144.169 1.912 144.193 1.952 144.209 2C144.225 2.048 144.241 2.088 144.257 2.12C144.337 2.248 144.377 2.376 144.377 2.504C144.377 2.568 144.385 2.64 144.401 2.72C144.417 2.784 144.433 2.856 144.449 2.936C144.497 3.032 144.569 3.08 144.665 3.08C144.681 3.064 144.697 3.064 144.713 3.08C144.729 3.096 144.737 3.112 144.737 3.128C144.817 3.224 144.841 3.328 144.809 3.44C144.777 3.568 144.769 3.696 144.785 3.824C144.817 3.936 144.849 4.056 144.881 4.184C144.945 4.344 145.009 4.504 145.073 4.664C145.137 4.824 145.201 4.984 145.265 5.144C145.345 5.32 145.425 5.496 145.505 5.672C145.585 5.848 145.657 6.024 145.721 6.2C145.801 6.424 145.881 6.648 145.961 6.872C146.057 7.096 146.161 7.32 146.273 7.544L146.345 7.808C146.361 7.872 146.377 7.936 146.393 8C146.425 8.064 146.449 8.128 146.465 8.192C146.497 8.24 146.521 8.288 146.537 8.336C146.569 8.384 146.601 8.424 146.633 8.456C146.713 8.568 146.761 8.688 146.777 8.816C146.825 8.976 146.897 9.12 146.993 9.248C147.025 9.296 147.073 9.32 147.137 9.32C147.377 9.288 147.617 9.264 147.857 9.248C148.097 9.216 148.337 9.168 148.577 9.104C148.753 9.056 148.921 9.032 149.081 9.032C149.385 9.032 149.665 9.136 149.921 9.344C150.225 9.584 150.385 9.888 150.401 10.256C150.401 10.336 150.409 10.4 150.425 10.448C150.425 10.56 150.393 10.648 150.329 10.712C150.313 10.76 150.281 10.808 150.233 10.856C150.201 10.904 150.169 10.952 150.137 11C150.105 11.064 150.073 11.112 150.041 11.144L149.897 11.264C149.881 11.296 149.857 11.336 149.825 11.384C149.793 11.416 149.753 11.44 149.705 11.456C149.641 11.472 149.577 11.496 149.513 11.528C149.449 11.544 149.377 11.552 149.297 11.552C149.009 11.584 148.753 11.576 148.529 11.528H148.145C148.113 11.528 148.065 11.544 148.001 11.576C147.937 11.608 147.905 11.648 147.905 11.696V11.792C147.953 11.936 147.985 12.088 148.001 12.248C148.033 12.392 148.081 12.528 148.145 12.656C148.145 12.72 148.161 12.784 148.193 12.848C148.273 12.992 148.337 13.144 148.385 13.304C148.433 13.448 148.473 13.6 148.505 13.76C148.505 13.792 148.521 13.856 148.553 13.952C148.601 14.064 148.641 14.184 148.673 14.312C148.705 14.424 148.729 14.544 148.745 14.672C148.745 14.768 148.769 14.856 148.817 14.936C148.881 15.08 148.929 15.224 148.961 15.368C148.993 15.512 149.017 15.664 149.033 15.824C149.049 15.84 149.057 15.872 149.057 15.92C149.057 15.952 149.065 15.984 149.081 16.016C149.161 16.192 149.217 16.384 149.249 16.592C149.281 16.784 149.321 16.976 149.369 17.168C149.401 17.264 149.417 17.36 149.417 17.456C149.433 17.568 149.441 17.68 149.441 17.792C149.441 17.872 149.417 17.96 149.369 18.056C149.321 18.104 149.297 18.128 149.297 18.128C149.201 18.144 149.145 18.2 149.129 18.296L149.057 18.44C149.025 18.504 148.977 18.544 148.913 18.56C148.849 18.56 148.793 18.584 148.745 18.632C148.681 18.696 148.593 18.728 148.481 18.728C148.417 18.728 148.337 18.728 148.241 18.728C148.161 18.728 148.081 18.736 148.001 18.752ZM142.217 10.04C142.313 10.024 142.409 10.008 142.505 9.992C142.617 9.976 142.737 9.96 142.865 9.944C142.945 9.928 143.049 9.912 143.177 9.896C143.305 9.88 143.425 9.864 143.537 9.848C143.649 9.816 143.761 9.8 143.873 9.8C143.985 9.784 144.097 9.768 144.209 9.752C144.305 9.72 144.401 9.704 144.497 9.704C144.593 9.688 144.689 9.672 144.785 9.656C144.929 9.624 144.985 9.544 144.953 9.416C144.937 9.288 144.905 9.16 144.857 9.032C144.825 8.888 144.753 8.768 144.641 8.672C144.609 8.64 144.593 8.592 144.593 8.528V8.456C144.561 8.328 144.521 8.208 144.473 8.096C144.441 7.968 144.401 7.848 144.353 7.736C144.321 7.608 144.281 7.496 144.233 7.4C144.201 7.288 144.161 7.176 144.113 7.064L143.825 6.2C143.777 6.088 143.729 5.976 143.681 5.864C143.649 5.752 143.617 5.64 143.585 5.528L143.513 5.432H143.441L143.393 5.504C143.313 5.744 143.217 5.984 143.105 6.224C143.009 6.464 142.921 6.72 142.841 6.992C142.841 7.024 142.833 7.064 142.817 7.112C142.801 7.16 142.785 7.208 142.769 7.256C142.705 7.416 142.641 7.592 142.577 7.784C142.529 7.976 142.489 8.168 142.457 8.36C142.441 8.472 142.425 8.584 142.409 8.696C142.393 8.792 142.369 8.896 142.337 9.008L142.121 9.944C142.105 9.96 142.113 9.984 142.145 10.016C142.177 10.032 142.201 10.04 142.217 10.04ZM154.216 17.24C154.12 17.24 154.056 17.232 154.024 17.216C153.96 17.184 153.904 17.16 153.856 17.144C153.808 17.128 153.76 17.112 153.712 17.096C153.664 17.064 153.616 17.032 153.568 17C153.536 16.952 153.504 16.904 153.472 16.856C153.44 16.824 153.408 16.808 153.376 16.808C153.28 16.808 153.232 16.76 153.232 16.664C153.216 16.568 153.2 16.472 153.184 16.376C153.168 16.28 153.152 16.184 153.136 16.088C153.12 15.944 153.104 15.8 153.088 15.656C153.088 15.512 153.072 15.376 153.04 15.248V15.032C153.04 14.968 153.032 14.912 153.016 14.864C153.016 14.816 153.016 14.76 153.016 14.696C152.984 14.616 152.984 14.552 153.016 14.504C153.048 14.216 153.048 13.928 153.016 13.64C153 13.56 152.992 13.48 152.992 13.4C152.992 13.32 152.984 13.24 152.968 13.16C152.968 13 152.968 12.84 152.968 12.68C152.968 12.504 152.952 12.336 152.92 12.176V11.792C152.92 11.664 152.912 11.544 152.896 11.432C152.896 11.32 152.888 11.208 152.872 11.096C152.856 10.952 152.84 10.808 152.824 10.664C152.824 10.52 152.816 10.376 152.8 10.232C152.784 10.2 152.776 10.144 152.776 10.064C152.76 9.984 152.744 9.904 152.728 9.824C152.728 9.728 152.728 9.64 152.728 9.56L152.656 8.36C152.64 8.232 152.624 8.112 152.608 8C152.608 7.872 152.608 7.752 152.608 7.64C152.592 7.448 152.576 7.256 152.56 7.064C152.544 6.872 152.528 6.688 152.512 6.512C152.512 6.48 152.504 6.448 152.488 6.416C152.488 6.384 152.488 6.36 152.488 6.344C152.488 6.152 152.48 5.96 152.464 5.768C152.448 5.576 152.432 5.376 152.416 5.168L152.344 4.496C152.296 4.24 152.288 3.96 152.32 3.656C152.32 3.512 152.376 3.392 152.488 3.296C152.52 3.264 152.544 3.248 152.56 3.248C152.576 3.232 152.592 3.216 152.608 3.2C152.688 3.184 152.728 3.128 152.728 3.032C152.728 3 152.76 2.984 152.824 2.984H152.944C152.96 2.984 152.968 2.984 152.968 2.984C152.984 2.968 153 2.96 153.016 2.96C153.048 2.944 153.072 2.928 153.088 2.912C153.12 2.88 153.144 2.864 153.16 2.864C153.192 2.864 153.224 2.872 153.256 2.888C153.288 2.888 153.32 2.896 153.352 2.912C153.384 2.912 153.408 2.904 153.424 2.888C153.504 2.872 153.584 2.88 153.664 2.912C153.76 2.928 153.84 2.952 153.904 2.984C154 3 154.072 3.064 154.12 3.176C154.168 3.32 154.208 3.464 154.24 3.608C154.288 3.736 154.32 3.872 154.336 4.016V4.208C154.368 4.32 154.384 4.44 154.384 4.568C154.384 4.68 154.384 4.8 154.384 4.928C154.384 5.04 154.384 5.152 154.384 5.264C154.4 5.36 154.416 5.456 154.432 5.552C154.432 5.6 154.432 5.648 154.432 5.696C154.432 5.744 154.44 5.792 154.456 5.84C154.456 5.936 154.456 6.032 154.456 6.128C154.472 6.224 154.488 6.328 154.504 6.44C154.52 6.616 154.536 6.8 154.552 6.992C154.568 7.184 154.576 7.376 154.576 7.568C154.576 7.648 154.576 7.736 154.576 7.832C154.576 7.912 154.584 7.992 154.6 8.072C154.616 8.12 154.624 8.168 154.624 8.216C154.624 8.264 154.624 8.312 154.624 8.36V8.84C154.624 8.936 154.632 9.016 154.648 9.08C154.68 9.192 154.688 9.304 154.672 9.416C154.672 9.512 154.68 9.616 154.696 9.728L154.768 10.832C154.784 10.992 154.792 11.16 154.792 11.336C154.808 11.496 154.816 11.664 154.816 11.84C154.816 11.904 154.816 11.976 154.816 12.056C154.816 12.12 154.824 12.184 154.84 12.248C154.856 12.296 154.864 12.344 154.864 12.392C154.864 12.44 154.864 12.488 154.864 12.536C154.88 12.552 154.88 12.584 154.864 12.632C154.864 12.664 154.872 12.696 154.888 12.728C154.92 12.84 154.936 12.952 154.936 13.064C154.936 13.176 154.936 13.296 154.936 13.424C154.936 13.488 154.936 13.56 154.936 13.64C154.952 13.704 154.96 13.776 154.96 13.856C154.976 13.936 154.984 14.024 154.984 14.12C154.984 14.216 154.984 14.304 154.984 14.384C155 14.464 155.008 14.552 155.008 14.648C155.008 14.728 155.016 14.808 155.032 14.888C155.048 14.92 155.056 14.952 155.056 14.984C155.056 15.16 155.072 15.336 155.104 15.512C155.136 15.688 155.168 15.864 155.2 16.04C155.216 16.088 155.224 16.144 155.224 16.208C155.224 16.256 155.224 16.304 155.224 16.352C155.224 16.4 155.208 16.44 155.176 16.472C155.112 16.52 155.064 16.616 155.032 16.76C155.032 16.808 155.008 16.848 154.96 16.88C154.848 16.928 154.752 16.992 154.672 17.072C154.544 17.184 154.392 17.24 154.216 17.24ZM166.557 17.216C166.509 17.2 166.453 17.184 166.389 17.168C166.341 17.152 166.293 17.136 166.245 17.12C166.117 17.072 165.989 17.008 165.861 16.928C165.797 16.896 165.749 16.848 165.717 16.784C165.605 16.608 165.501 16.448 165.405 16.304C165.309 16.144 165.205 15.984 165.093 15.824L164.877 15.44C164.765 15.216 164.653 15 164.541 14.792C164.429 14.568 164.317 14.352 164.205 14.144C164.173 14.064 164.133 14 164.085 13.952C164.053 13.888 164.021 13.824 163.989 13.76C163.877 13.584 163.773 13.408 163.677 13.232C163.581 13.04 163.485 12.856 163.389 12.68L162.789 11.504C162.629 11.184 162.469 10.872 162.309 10.568C162.149 10.248 161.989 9.928 161.829 9.608C161.797 9.576 161.765 9.528 161.733 9.464C161.669 9.288 161.589 9.12 161.493 8.96C161.413 8.8 161.333 8.64 161.253 8.48C161.189 8.368 161.133 8.256 161.085 8.144C161.037 8.016 160.981 7.896 160.917 7.784L160.653 7.304C160.621 7.304 160.597 7.296 160.581 7.28C160.581 7.28 160.573 7.288 160.557 7.304C160.557 7.304 160.557 7.312 160.557 7.328C160.541 7.536 160.525 7.752 160.509 7.976C160.493 8.2 160.493 8.424 160.509 8.648C160.541 8.744 160.541 8.848 160.509 8.96C160.477 9.248 160.485 9.504 160.533 9.728C160.549 9.792 160.549 9.856 160.533 9.92C160.533 9.984 160.525 10.056 160.509 10.136C160.493 10.248 160.485 10.352 160.485 10.448C160.485 10.544 160.477 10.648 160.461 10.76C160.493 10.824 160.509 10.896 160.509 10.976C160.509 11.04 160.501 11.104 160.485 11.168C160.437 11.328 160.437 11.496 160.485 11.672C160.517 11.72 160.517 11.768 160.485 11.816C160.421 11.96 160.405 12.136 160.437 12.344C160.485 12.616 160.469 12.912 160.389 13.232C160.373 13.264 160.365 13.32 160.365 13.4C160.349 13.464 160.365 13.52 160.413 13.568C160.477 13.6 160.493 13.64 160.461 13.688C160.445 13.896 160.445 14.112 160.461 14.336C160.461 14.336 160.461 14.344 160.461 14.36C160.461 14.36 160.453 14.36 160.437 14.36C160.421 14.36 160.413 14.352 160.413 14.336C160.397 14.32 160.389 14.304 160.389 14.288C160.357 14.256 160.341 14.264 160.341 14.312C160.341 14.392 160.349 14.44 160.365 14.456C160.397 14.536 160.413 14.616 160.413 14.696C160.413 14.776 160.413 14.856 160.413 14.936V15.68C160.413 15.728 160.405 15.776 160.389 15.824C160.389 15.872 160.365 15.912 160.317 15.944C160.253 15.96 160.221 16.016 160.221 16.112C160.205 16.288 160.141 16.44 160.029 16.568C159.933 16.696 159.821 16.808 159.693 16.904C159.629 16.952 159.549 16.984 159.453 17C159.373 17 159.293 16.992 159.213 16.976L158.781 16.832C158.749 16.832 158.717 16.808 158.685 16.76C158.637 16.712 158.589 16.664 158.541 16.616C158.493 16.552 158.437 16.496 158.373 16.448C158.293 16.4 158.237 16.312 158.205 16.184C158.189 16.104 158.165 16.016 158.133 15.92C158.101 15.824 158.085 15.728 158.085 15.632C158.085 15.52 158.085 15.416 158.085 15.32C158.101 15.224 158.109 15.12 158.109 15.008C158.125 14.928 158.133 14.856 158.133 14.792C158.133 14.712 158.141 14.632 158.157 14.552V5.768C158.157 5.688 158.157 5.608 158.157 5.528C158.173 5.448 158.189 5.376 158.205 5.312C158.205 5.232 158.205 5.152 158.205 5.072C158.221 4.992 158.229 4.912 158.229 4.832C158.229 4.736 158.229 4.64 158.229 4.544C158.245 4.448 158.261 4.36 158.277 4.28C158.293 4.216 158.301 4.16 158.301 4.112C158.301 4.064 158.301 4.008 158.301 3.944V3.2C158.301 3.088 158.309 2.992 158.325 2.912C158.357 2.816 158.381 2.72 158.397 2.624L158.469 2.504C158.517 2.456 158.557 2.384 158.589 2.288C158.621 2.192 158.669 2.144 158.733 2.144C158.781 2.112 158.829 2.088 158.877 2.072C158.925 2.04 158.957 1.992 158.973 1.928L158.997 1.904C159.013 1.904 159.029 1.904 159.045 1.904C159.061 1.888 159.077 1.88 159.093 1.88C159.157 1.88 159.205 1.864 159.237 1.832C159.285 1.8 159.341 1.792 159.405 1.808C159.469 1.824 159.533 1.832 159.597 1.832C159.661 1.832 159.725 1.84 159.789 1.856C160.141 1.92 160.389 2.128 160.533 2.48L160.677 2.96C160.693 3.12 160.765 3.272 160.893 3.416C160.989 3.528 161.085 3.648 161.181 3.776C161.277 3.904 161.381 4.032 161.493 4.16C161.909 4.688 162.293 5.28 162.645 5.936C162.677 6 162.709 6.064 162.741 6.128C162.773 6.192 162.805 6.256 162.837 6.32L164.085 8.84C164.181 9.016 164.269 9.2 164.349 9.392C164.445 9.568 164.549 9.744 164.661 9.92C164.693 9.984 164.725 10.048 164.757 10.112C164.789 10.16 164.813 10.216 164.829 10.28C164.909 10.472 165.005 10.664 165.117 10.856C165.117 10.856 165.117 10.864 165.117 10.88C165.133 10.88 165.141 10.872 165.141 10.856C165.157 10.856 165.165 10.856 165.165 10.856C165.181 10.84 165.189 10.832 165.189 10.832L165.261 9.992V9.752C165.277 9.672 165.285 9.592 165.285 9.512C165.301 9.416 165.317 9.328 165.333 9.248C165.349 9.2 165.349 9.144 165.333 9.08C165.333 9.016 165.341 8.952 165.357 8.888C165.357 8.792 165.357 8.696 165.357 8.6C165.373 8.488 165.389 8.384 165.405 8.288C165.421 8.24 165.429 8.192 165.429 8.144C165.429 8.08 165.429 8.024 165.429 7.976V7.328H165.405V6.68C165.405 6.6 165.405 6.52 165.405 6.44C165.405 6.36 165.389 6.28 165.357 6.2C165.341 6.152 165.333 6.08 165.333 5.984L165.357 5.816C165.357 5.768 165.349 5.728 165.333 5.696C165.333 5.648 165.333 5.6 165.333 5.552C165.349 5.488 165.341 5.424 165.309 5.36C165.277 5.296 165.261 5.232 165.261 5.168C165.277 5.104 165.285 5.04 165.285 4.976C165.285 4.912 165.285 4.848 165.285 4.784C165.285 4.72 165.253 4.688 165.189 4.688C165.173 4.688 165.165 4.672 165.165 4.64C165.149 4.592 165.149 4.552 165.165 4.52C165.197 4.44 165.213 4.352 165.213 4.256C165.213 4.16 165.213 4.064 165.213 3.968V3.272C165.197 3.176 165.205 3.08 165.237 2.984C165.269 2.888 165.309 2.8 165.357 2.72L165.453 2.576C165.533 2.496 165.621 2.416 165.717 2.336C165.813 2.256 165.909 2.176 166.005 2.096C166.005 2.096 166.037 2.08 166.101 2.048C166.181 2.032 166.253 2.016 166.317 2C166.397 1.984 166.477 1.984 166.557 2C166.621 2 166.669 2.008 166.701 2.024C166.765 2.056 166.829 2.096 166.893 2.144C166.957 2.176 167.021 2.216 167.085 2.264C167.117 2.28 167.133 2.296 167.133 2.312C167.149 2.328 167.165 2.344 167.181 2.36C167.213 2.392 167.237 2.432 167.253 2.48C167.285 2.512 167.309 2.544 167.325 2.576C167.405 2.64 167.453 2.72 167.469 2.816C167.501 2.896 167.525 2.976 167.541 3.056V4.064C167.541 4.176 167.541 4.288 167.541 4.4C167.557 4.496 167.573 4.6 167.589 4.712C167.605 4.776 167.613 4.84 167.613 4.904C167.613 4.952 167.613 5.008 167.613 5.072C167.613 5.2 167.613 5.336 167.613 5.48C167.629 5.608 167.637 5.736 167.637 5.864V6.032C167.637 6.144 167.629 6.256 167.613 6.368C167.613 6.464 167.613 6.568 167.613 6.68V7.736C167.613 7.896 167.605 8.064 167.589 8.24C167.589 8.4 167.597 8.568 167.613 8.744C167.613 8.808 167.605 8.856 167.589 8.888C167.573 9.048 167.565 9.208 167.565 9.368C167.565 9.512 167.557 9.664 167.541 9.824C167.541 9.888 167.541 9.96 167.541 10.04C167.541 10.12 167.533 10.2 167.517 10.28C167.501 10.344 167.493 10.408 167.493 10.472C167.509 10.536 167.517 10.6 167.517 10.664C167.549 10.808 167.557 10.952 167.541 11.096C167.541 11.24 167.533 11.384 167.517 11.528C167.501 11.784 167.485 12.048 167.469 12.32C167.469 12.576 167.485 12.84 167.517 13.112C167.517 13.176 167.517 13.248 167.517 13.328C167.533 13.408 167.541 13.488 167.541 13.568C167.525 13.808 167.533 14.04 167.565 14.264C167.613 14.488 167.661 14.712 167.709 14.936C167.741 15.096 167.773 15.256 167.805 15.416C167.837 15.56 167.861 15.72 167.877 15.896C167.877 15.96 167.869 16 167.853 16.016C167.837 16.048 167.821 16.088 167.805 16.136C167.789 16.168 167.781 16.2 167.781 16.232C167.765 16.36 167.717 16.48 167.637 16.592C167.573 16.704 167.501 16.816 167.421 16.928C167.213 17.2 166.925 17.296 166.557 17.216Z" fill="black"/>
</svg>
